<?xml version="1.0" encoding="utf-8"?>
<!-- Generator: Adobe Illustrator 24.1.1, SVG Export Plug-In . SVG Version: 6.00 Build 0)  -->
<svg version="1.1" id="Calque_1" xmlns="http://www.w3.org/2000/svg" xmlns:xlink="http://www.w3.org/1999/xlink" x="0px" y="0px"
	 viewBox="0 0 125.6 58.4" style="enable-background:new 0 0 125.6 58.4;" xml:space="preserve">
<style type="text/css">
	.st0{fill:#e6e6e6;}
</style>
<g id="Groupe_34" transform="translate(-43.014 -157.21)">
	<path id="Tracé_56" class="st0" d="M101.6,203.1v2.5h-6.8V192h2.6v11.2H101.6z"/>
	<path id="Tracé_57" class="st0" d="M112.7,198.9c0,0.4,0,0.9,0,1.4h-7.2c0,1.8,1.2,3.3,3.1,3.3c1.2,0,2.2-0.5,3-1.4l0.9,1.9
		c-0.9,1.2-2.6,1.7-4.1,1.7c-3.5,0-5.6-2.8-5.6-6.2c0-3.1,1.7-5.9,5.1-5.9C111.1,193.8,112.7,196,112.7,198.9z M105.6,198.3h4.8
		c0.1-1.2-0.9-2.3-2.1-2.4c-0.1,0-0.1,0-0.3,0c-1.3-0.1-2.4,0.9-2.5,2.2C105.6,198.3,105.6,198.3,105.6,198.3z"/>
	<path id="Tracé_58" class="st0" d="M120.8,198.8c-0.1-1.6-0.7-2.8-2.5-2.8c-1.1,0.1-2.1,0.4-2.9,1.1l-0.8-1.8
		c1.1-1,2.5-1.6,3.9-1.6c3.5,0,4.6,3,4.6,6c0,1.1-0.2,4.1,1.4,4.1l-0.9,2c-1,0.1-2-0.4-2.5-1.3c-0.9,0.9-2,1.3-3.2,1.3
		c-2.4,0-3.9-1.6-3.9-4.1c0.1-2.2,1.8-3.9,4-3.8C119.1,198,120,198.3,120.8,198.8z M116.6,201.9c0,1,0.9,1.9,1.9,1.9
		c0.1,0,0.1,0,0.1,0c0.9,0,1.7-0.4,2.3-1l-0.1-2c-0.7-0.5-1.4-0.8-2.2-0.8C117.5,200,116.6,200.8,116.6,201.9L116.6,201.9z"/>
	<path id="Tracé_59" class="st0" d="M133.7,190.4l-0.8,1.7c-0.4-0.1-0.8-0.3-1.2-0.3c-1.3,0-2,1.1-2,2.2h3.3v2.2h-3.4v9.4h-2.4
		v-9.4h-1.7V194h1.7c0-2.2,1.4-4.4,3.9-4.4C132.1,189.6,132.9,189.9,133.7,190.4z"/>
	<path id="Tracé_60" class="st0" d="M143.8,198.9c0,0.4,0,0.9,0,1.4h-7.2c0,1.8,1.2,3.3,3.1,3.3c1.2,0,2.2-0.5,3-1.4l0.9,1.9
		c-0.9,1.2-2.6,1.7-4.1,1.7c-3.5,0-5.6-2.8-5.6-6.2c0-3.1,1.7-5.9,5.1-5.9C142.1,193.8,143.8,196,143.8,198.9z M136.7,198.3h4.8
		c0.1-1.2-0.9-2.3-2.1-2.4c-0.1,0-0.1,0-0.3,0c-1.3-0.1-2.4,0.9-2.5,2.2C136.7,198.3,136.7,198.3,136.7,198.3z"/>
	<path id="Tracé_61" class="st0" d="M149.2,199.8v5.9h-2.5v-11.6h2.5v1.7c0.5-1.2,1.7-2,3-2c0.6,0,1.2,0.1,1.7,0.4l-1.2,2.6
		c-0.3-0.1-0.7-0.2-1-0.2C149.7,196.5,149.2,198.3,149.2,199.8z"/>
	<path id="Tracé_62" class="st0" d="M156,205.9c-1,0-1.8-0.8-1.8-1.8s0.8-1.8,1.8-1.8c1,0,1.8,0.8,1.8,1.8S157,205.9,156,205.9
		L156,205.9z"/>
</g>
<g>
	<path class="st0" d="M29.4,40.3c-0.2,0.2-0.3,0.4-0.4,0.7c0,0.4,0.2,0.9,2.1,0.2c3-1.2,1.5-2.2,1-2c-0.5,0.2-1.1,0.5-2.1,0.7
		C29.7,39.9,29.7,40.1,29.4,40.3z"/>
	<path class="st0" d="M34.1,27.3c0,0,1-1.1,1.8-0.9s0.2,1.4-0.4,1.4c-0.7,0-1.5,0.6-1.8,0.8S32.9,28.2,34.1,27.3z"/>
	<path class="st0" d="M19.9,43.7c0,0-0.8-0.8-0.8,0s0.4,0.5,0.9,0.9s1.2,0.3,1-0.3C20.9,43.7,20,43.8,19.9,43.7z"/>
	<path class="st0" d="M21.2,25.2c0,0-1.3-1.8-1.8-1C19,25,19,25.5,19.7,26.1c0.8,0.5,1.8,1.2,1.9,0.4C21.7,25.7,21.2,25.2,21.2,25.2
		z"/>
	<g>
		<line class="st0" x1="26.5" y1="11.8" x2="26.5" y2="50.4"/>
		<path class="st0" d="M41.7,10.9L41.7,10.9c-0.6-0.2-1.2-0.3-1.9-0.3l0,0c0,0,0,0-0.1,0H13.2c-1.6,0-3.1,0.6-4.2,1.5
			c-0.3,0.3-0.6,0.6-0.9,0.9c-1,1.1-1.5,2.6-1.5,4.2v26.6c0,3.7,3,6.6,6.6,6.6h11.4h1.7h13.5c3.7,0,6.6-3,6.6-6.6V17.2
			C46.4,14.3,44.4,11.7,41.7,10.9z M13.2,49.2c-3,0-5.4-2.4-5.4-5.4v-2c2.8,2.1,6.5,4.2,11.1,6.3c1,0.4,1.9,0.8,2.7,1.2H13.2z
			 M25.9,49.2h-1.1c-3.5-1.4-11.9-4.9-17.1-9v0v0v-7.9c-0.2-0.2-0.4-0.3-0.6-0.5c0.2,0.2,0.4,0.3,0.6,0.5v0
			c2.8,2.1,6.5,4.2,11.1,6.3c3.5,1.6,6.4,2.7,7,2.9V49.2z M25.9,40.2c-2.4-0.9-12.3-4.7-18.2-9.4v0v0v-8.5c-0.2-0.2-0.4-0.3-0.6-0.5
			c0.2,0.2,0.4,0.3,0.6,0.5v0c2.8,2.1,6.5,4.2,11.1,6.3c3.5,1.6,6.4,2.7,7,2.9V40.2z M25.9,30.1c-2.4-0.9-12.3-4.7-18.2-9.4v0v0
			v-3.5c0-1.3,0.5-2.6,1.3-3.5c2.6,1.8,5.9,3.6,9.8,5.3c3.5,1.6,6.4,2.7,7,2.9V30.1z M25.9,20.6c-2.1-0.8-10.1-3.9-15.9-7.8
			c0.9-0.7,2-1,3.2-1h12.7V20.6z M40,11.8c-0.1,0-0.1,0-0.2,0l0,0C39.8,11.8,39.9,11.8,40,11.8z M27,11.8h10.6l0,0
			c-4.4,2.3-8.9,4.1-10.6,4.7V11.8z M27,17.8c0.9-0.3,3.6-1.4,6.8-2.8c2.3-1.1,4.4-2.1,6.3-3.2c2.6,0.2,4.6,2.2,5,4.7
			C39.5,21.1,29.8,24.9,27,26V17.8z M45.2,43.8c0,3-2.4,5.4-5.4,5.4H27v-2.4c0.9-0.3,3.6-1.4,6.8-2.8c4.8-2.2,8.6-4.3,11.3-6.4V43.8
			z M45.2,36L45.2,36c-5.6,4.6-15.4,8.5-18.2,9.5v-8.2c0.9-0.3,3.6-1.4,6.8-2.8c4.8-2.2,8.6-4.3,11.3-6.4V36z M45.2,26.5
			C39.6,31.2,29.8,35,27,36v-8.8c0.9-0.3,3.6-1.4,6.8-2.8c4.8-2.2,8.6-4.3,11.3-6.4V26.5z"/>
	</g>
</g>
</svg>
