<?xml version="1.0" encoding="utf-8"?>
<!-- Generator: Adobe Illustrator 24.1.1, SVG Export Plug-In . SVG Version: 6.00 Build 0)  -->
<svg version="1.1" id="Calque_1" xmlns="http://www.w3.org/2000/svg" xmlns:xlink="http://www.w3.org/1999/xlink" x="0px" y="0px"
	 viewBox="0 0 354 344" style="enable-background:new 0 0 354 344;" xml:space="preserve">
<style type="text/css">
	.st0{fill:none;}
	.st1{fill:#01A388;}
	.st2{fill:url(#SVGID_1_);}
	.st3{fill:url(#SVGID_2_);}
	.st4{fill:#254E75;}
</style>
<pattern  y="344" width="28.8" height="28.8" patternUnits="userSpaceOnUse" id="_x34_0_xA0__x25__10_ppp_2" viewBox="2.9 -31.7 28.8 28.8" style="overflow:visible;">
	<g>
		<rect x="2.9" y="-31.7" class="st0" width="28.8" height="28.8"/>
		<g>
			<path class="st1" d="M31.7,0c1.6,0,2.9-1.3,2.9-2.9c0-1.6-1.3-2.9-2.9-2.9c-1.6,0-2.9,1.3-2.9,2.9C28.8-1.3,30.1,0,31.7,0z"/>
			<path class="st1" d="M17.3,0c1.6,0,2.9-1.3,2.9-2.9c0-1.6-1.3-2.9-2.9-2.9c-1.6,0-2.9,1.3-2.9,2.9C14.4-1.3,15.7,0,17.3,0z"/>
			<path class="st1" d="M31.7-14.4c1.6,0,2.9-1.3,2.9-2.9s-1.3-2.9-2.9-2.9c-1.6,0-2.9,1.3-2.9,2.9S30.1-14.4,31.7-14.4z"/>
			<path class="st1" d="M17.3-14.4c1.6,0,2.9-1.3,2.9-2.9s-1.3-2.9-2.9-2.9c-1.6,0-2.9,1.3-2.9,2.9S15.7-14.4,17.3-14.4z"/>
			<path class="st1" d="M10.1-7.2c1.6,0,2.9-1.3,2.9-2.9c0-1.6-1.3-2.9-2.9-2.9c-1.6,0-2.9,1.3-2.9,2.9C7.2-8.5,8.5-7.2,10.1-7.2z"
				/>
			<path class="st1" d="M24.5-7.2c1.6,0,2.9-1.3,2.9-2.9c0-1.6-1.3-2.9-2.9-2.9c-1.6,0-2.9,1.3-2.9,2.9C21.6-8.5,22.9-7.2,24.5-7.2z
				"/>
			<path class="st1" d="M10.1-21.6c1.6,0,2.9-1.3,2.9-2.9c0-1.6-1.3-2.9-2.9-2.9c-1.6,0-2.9,1.3-2.9,2.9
				C7.2-22.9,8.5-21.6,10.1-21.6z"/>
			<path class="st1" d="M24.5-21.6c1.6,0,2.9-1.3,2.9-2.9c0-1.6-1.3-2.9-2.9-2.9c-1.6,0-2.9,1.3-2.9,2.9
				C21.6-22.9,22.9-21.6,24.5-21.6z"/>
		</g>
		<g>
			<path class="st1" d="M2.9,0c1.6,0,2.9-1.3,2.9-2.9c0-1.6-1.3-2.9-2.9-2.9C1.3-5.8,0-4.5,0-2.9C0-1.3,1.3,0,2.9,0z"/>
			<path class="st1" d="M2.9-14.4c1.6,0,2.9-1.3,2.9-2.9s-1.3-2.9-2.9-2.9c-1.6,0-2.9,1.3-2.9,2.9S1.3-14.4,2.9-14.4z"/>
		</g>
		<g>
			<path class="st1" d="M31.7-28.8c1.6,0,2.9-1.3,2.9-2.9c0-1.6-1.3-2.9-2.9-2.9c-1.6,0-2.9,1.3-2.9,2.9
				C28.8-30.1,30.1-28.8,31.7-28.8z"/>
			<path class="st1" d="M17.3-28.8c1.6,0,2.9-1.3,2.9-2.9c0-1.6-1.3-2.9-2.9-2.9c-1.6,0-2.9,1.3-2.9,2.9
				C14.4-30.1,15.7-28.8,17.3-28.8z"/>
		</g>
		<g>
			<path class="st1" d="M2.9-28.8c1.6,0,2.9-1.3,2.9-2.9c0-1.6-1.3-2.9-2.9-2.9c-1.6,0-2.9,1.3-2.9,2.9C0-30.1,1.3-28.8,2.9-28.8z"
				/>
		</g>
	</g>
</pattern>
<g>
	<pattern  id="SVGID_1_" xlink:href="#_x34_0_xA0__x25__10_ppp_2" patternTransform="matrix(1 0 0 1 -16.4014 -19.7885)">
	</pattern>
	<path class="st2" d="M208.1,164.9l1.6,20.8l0,0l52.5-52.5c1.1-1.1,2.5-1.9,4.1-2.2l22.8-4.6l-21.3-21.3L208.1,164.9z"/>
	<pattern  id="SVGID_2_" xlink:href="#_x34_0_xA0__x25__10_ppp_2" patternTransform="matrix(1 0 0 1 -16.4014 -19.7885)">
	</pattern>
	<polygon class="st3" points="81.1,218.2 196.2,218.2 189.4,128.4 87.9,128.4 	"/>
	<path class="st4" d="M310.7,125.8l-37.3-37.3c-3.1-3.1-8.1-3.1-11.2,0l-55.6,55.6l-1.8-24.2c-0.3-4.1-3.8-7.3-7.9-7.3h-74.7
		c-4.4-22.9-26.5-38-49.4-33.6c-19.9,3.8-34.4,21.2-34.4,41.5c0,19.1,12.8,35.8,31.2,40.8l-7.4,98.6c-0.3,4.4,2.9,8.2,7.3,8.5
		c0.2,0,0.4,0,0.6,0h137.3c4.4,0,7.9-3.6,7.9-7.9c0-0.2,0-0.4,0-0.6l-4-53.3l60.4-60.4l35-7c4.3-0.9,7.1-5,6.2-9.3
		C312.5,128.4,311.8,126.9,310.7,125.8z M189.4,128.4l6.8,89.8H81.1l6.8-89.8H189.4z M54.2,120.5c0-14.6,11.9-26.4,26.5-26.4
		c11.5,0,21.6,7.5,25.1,18.4H80.6c-4.1,0-7.6,3.2-7.9,7.3L70.8,145C60.8,141,54.2,131.3,54.2,120.5z M266.2,131.1
		c-1.5,0.3-2.9,1.1-4.1,2.2l-52.5,52.5l0,0l-1.6-20.8l59.6-59.6l21.3,21.3L266.2,131.1z"/>
</g>
</svg>
