<?xml version="1.0" encoding="utf-8"?>
<!-- Generator: Adobe Illustrator 24.1.1, SVG Export Plug-In . SVG Version: 6.00 Build 0)  -->
<svg version="1.1" id="Calque_1" xmlns="http://www.w3.org/2000/svg" xmlns:xlink="http://www.w3.org/1999/xlink" x="0px" y="0px"
	 viewBox="0 0 354 344" style="enable-background:new 0 0 354 344;" xml:space="preserve">
<style type="text/css">
	.st0{fill:none;}
	.st1{fill:#01A388;}
	.st2{fill:url(#SVGID_1_);stroke:#254E75;stroke-width:2;stroke-miterlimit:10;}
	.st3{fill:url(#SVGID_2_);stroke:#254E75;stroke-width:2;stroke-miterlimit:10;}
	.st4{fill:url(#SVGID_3_);stroke:#254E75;stroke-width:2;stroke-miterlimit:10;}
	.st5{fill:#254E75;}
	.st6{fill:none;stroke:#254E75;stroke-width:7.8062;stroke-linecap:round;stroke-miterlimit:10;}
</style>
<pattern  x="102" y="97" width="28.8" height="28.8" patternUnits="userSpaceOnUse" id="_x34_0_xA0__x25__10_ppp_3" viewBox="2.9 -31.7 28.8 28.8" style="overflow:visible;">
	<g>
		<rect x="2.9" y="-31.7" class="st0" width="28.8" height="28.8"/>
		<g>
			<path class="st1" d="M31.7,0c1.6,0,2.9-1.3,2.9-2.9c0-1.6-1.3-2.9-2.9-2.9c-1.6,0-2.9,1.3-2.9,2.9C28.8-1.3,30.1,0,31.7,0z"/>
			<path class="st1" d="M17.3,0c1.6,0,2.9-1.3,2.9-2.9c0-1.6-1.3-2.9-2.9-2.9c-1.6,0-2.9,1.3-2.9,2.9C14.4-1.3,15.7,0,17.3,0z"/>
			<path class="st1" d="M31.7-14.4c1.6,0,2.9-1.3,2.9-2.9s-1.3-2.9-2.9-2.9c-1.6,0-2.9,1.3-2.9,2.9S30.1-14.4,31.7-14.4z"/>
			<path class="st1" d="M17.3-14.4c1.6,0,2.9-1.3,2.9-2.9s-1.3-2.9-2.9-2.9c-1.6,0-2.9,1.3-2.9,2.9S15.7-14.4,17.3-14.4z"/>
			<path class="st1" d="M10.1-7.2c1.6,0,2.9-1.3,2.9-2.9c0-1.6-1.3-2.9-2.9-2.9c-1.6,0-2.9,1.3-2.9,2.9C7.2-8.5,8.5-7.2,10.1-7.2z"
				/>
			<path class="st1" d="M24.5-7.2c1.6,0,2.9-1.3,2.9-2.9c0-1.6-1.3-2.9-2.9-2.9c-1.6,0-2.9,1.3-2.9,2.9C21.6-8.5,22.9-7.2,24.5-7.2z
				"/>
			<path class="st1" d="M10.1-21.6c1.6,0,2.9-1.3,2.9-2.9c0-1.6-1.3-2.9-2.9-2.9c-1.6,0-2.9,1.3-2.9,2.9
				C7.2-22.9,8.5-21.6,10.1-21.6z"/>
			<path class="st1" d="M24.5-21.6c1.6,0,2.9-1.3,2.9-2.9c0-1.6-1.3-2.9-2.9-2.9c-1.6,0-2.9,1.3-2.9,2.9
				C21.6-22.9,22.9-21.6,24.5-21.6z"/>
		</g>
		<g>
			<path class="st1" d="M2.9,0c1.6,0,2.9-1.3,2.9-2.9c0-1.6-1.3-2.9-2.9-2.9C1.3-5.8,0-4.5,0-2.9C0-1.3,1.3,0,2.9,0z"/>
			<path class="st1" d="M2.9-14.4c1.6,0,2.9-1.3,2.9-2.9s-1.3-2.9-2.9-2.9c-1.6,0-2.9,1.3-2.9,2.9S1.3-14.4,2.9-14.4z"/>
		</g>
		<g>
			<path class="st1" d="M31.7-28.8c1.6,0,2.9-1.3,2.9-2.9c0-1.6-1.3-2.9-2.9-2.9c-1.6,0-2.9,1.3-2.9,2.9
				C28.8-30.1,30.1-28.8,31.7-28.8z"/>
			<path class="st1" d="M17.3-28.8c1.6,0,2.9-1.3,2.9-2.9c0-1.6-1.3-2.9-2.9-2.9c-1.6,0-2.9,1.3-2.9,2.9
				C14.4-30.1,15.7-28.8,17.3-28.8z"/>
		</g>
		<g>
			<path class="st1" d="M2.9-28.8c1.6,0,2.9-1.3,2.9-2.9c0-1.6-1.3-2.9-2.9-2.9c-1.6,0-2.9,1.3-2.9,2.9C0-30.1,1.3-28.8,2.9-28.8z"
				/>
		</g>
	</g>
</pattern>
<pattern  id="SVGID_1_" xlink:href="#_x34_0_xA0__x25__10_ppp_3" patternTransform="matrix(1 0 0 1 26 10.7967)">
</pattern>
<path class="st2" d="M160.1,33.6c-15-14.9-44.2-16.7-64.9-16.7c-2.1,0-3.9,1.7-3.9,3.9c0,20.7,1.7,50,16.7,64.9
	c6.3,6.3,16,9.1,25.6,9.1c10.4,0,20.7-3.3,26.6-9.1c2.2-2.2,4.1-5.1,5.5-8.4l0,0l0,0C171.4,64.1,170.6,44.2,160.1,33.6z"/>
<pattern  id="SVGID_2_" xlink:href="#_x34_0_xA0__x25__10_ppp_3" patternTransform="matrix(1 0 0 1 26 10.7967)">
</pattern>
<path class="st3" d="M258.5,32.3c-20.7,0-50,1.7-64.9,16.7c-13.2,13.2-11.1,41,0,52.1c5.8,5.8,16.1,9.1,26.5,9.1
	c9.6,0,19.3-2.8,25.6-9.1c14.9-15,16.7-44.2,16.7-64.9C262.4,34,260.7,32.3,258.5,32.3z"/>
<pattern  id="SVGID_3_" xlink:href="#_x34_0_xA0__x25__10_ppp_3" patternTransform="matrix(1 0 0 1 26 10.7967)">
</pattern>
<path class="st4" d="M238.8,172.9c-1.4-1.1-3.1-1.4-4.5-0.8c-18.7,6.4-38.6,6.4-56.2,0.3c-6.5-2.2-14.2-3.3-22.4-3.3
	c-20.4,0-39.2,6.9-40,7.2c-2,0.8-3.4,2.8-3.1,5l9.7,119.6c0.3,2.5,2.3,4.4,4.8,4.4h100.5c2.6,0,4.8-1.9,4.8-4.4l8.5-123.8
	C240.8,175.4,240.2,173.7,238.8,172.9z"/>
<path class="st5" d="M249.4,327.7l19.6-206c0-1.2-0.3-2.4-1.4-3.2c-0.3-1-1.4-1.5-2.8-1.5H89.8c-1.4,0-2.8,0.5-3.7,1.5
	c-0.9,1-1.4,2-1.4,3.2l19.6,206 M114.5,327.4H240 M240.8,318.9H113.7L95.2,125.6H259L240.8,318.9z"/>
<path class="st5" d="M172.9,172.4c-2.1,0-3.9-1.7-3.9-3.9c0-82.4-30.2-103.1-41.6-110.9c-1.8-1.2-3.1-2.2-3.9-2.9
	c-1.5-1.5-1.5-4,0-5.5c1.5-1.5,4-1.5,5.5,0c0.5,0.5,1.5,1.2,2.8,2c10.1,6.9,33.9,23.2,42.1,76.6c6.7-25.1,21.3-49.5,51.1-63.6
	c1.9-0.9,4.6-0.2,5.5,1.7c0.9,1.9,0.4,4.1-1.5,5c0,0-0.6,0.3-0.6,0.3c-42.6,20-51.5,63.9-51.5,97.2
	C176.7,170.6,175,172.4,172.9,172.4z"/>
<line class="st6" x1="172.8" y1="147.1" x2="172.8" y2="248.1"/>
</svg>
