<?xml version="1.0" encoding="utf-8"?>
<!-- Generator: Adobe Illustrator 24.1.1, SVG Export Plug-In . SVG Version: 6.00 Build 0)  -->
<svg version="1.1" id="Calque_1" xmlns="http://www.w3.org/2000/svg" xmlns:xlink="http://www.w3.org/1999/xlink" x="0px" y="0px"
	 viewBox="0 0 354 344" style="enable-background:new 0 0 354 344;" xml:space="preserve">
<style type="text/css">
	.st0{fill:#254E75;}
</style>
<g>
	<path class="st0" d="M176,44.2C176,44.2,176,44.2,176,44.2c-70.3,0-127.3,57.2-127.3,127.4c0,70.2,57.1,127.2,127.3,127.2
		c0,0,0,0,0.1,0h0c33.9-0.1,65.9-13.4,89.9-37.5c24-24,37.3-55.9,37.4-89.9C303.3,101.3,246.2,44.2,176,44.2z M284.8,171.7l0,0.8
		c-0.2,29-11.7,56.2-32.3,76.6c-20.5,20.2-47.5,31.3-76.3,31.3c-0.2,0-0.5,0-0.7,0c-59.9-0.3-108.5-49.2-108.4-109
		C67.3,111.4,116.1,62.7,176,62.7c0.1,0,0.1,0,0.2,0c29.1,0.1,56.4,11.4,76.9,32C273.6,115.3,284.9,142.6,284.8,171.7z"/>
	<path class="st0" d="M230.4,197c-0.3-0.4-0.7-0.7-1.1-1c-1.8-1.3-4-1.9-6.3-1.5c-2.1,0.3-4,1.4-5.3,3c-0.4,0.4-0.9,0.8-1.3,1.3
		c-0.8,0.8-1.6,1.5-2.4,2.2l-0.1,0.1c-13.9,13-33.2,17.9-51.6,13.1c-10.4-2.7-19.9-8.2-27.4-15.9l-0.2-0.2c-2.4-2.2-5.6-3.3-8.8-3.2
		l-0.6,0l-0.6,0.2c-3,1.2-5.3,3.9-5.8,7.1l-0.1,0.5l0,0.5c0.3,3.2,1.6,6.2,3.9,8.4c14.1,14.4,33.4,22.5,53.5,22.5
		c1.1,0,2.1,0,3.2-0.1c14.3-0.3,27.9-5,39.3-13.4c4.2-3.1,8.2-6.6,11.9-10.5c0.4-0.4,0.8-0.8,1.1-1.2c1.4-1.9,2-4.2,1.7-6.5
		C233.2,200.4,232.1,198.5,230.4,197z"/>
	<path class="st0" d="M120.9,160.6c0.3-2.3,1-4.4,2-6.5c2.6-4.4,7.8-6.6,12.7-5.2l0.3,0.1c5.4,1.1,9.3,5.7,9.5,11.2l0,0.3
		c0.4,3.5,1.6,6.1,3.7,7.6c1.3,1,3.5,2,6.9,1.5c3-0.5,8-2.5,7.5-11.1c-1.2-15.9-14.5-28.2-30.4-28.2c0,0-0.1,0-0.1,0
		c-0.1,0-0.2,0-0.3,0c-15.9,0-29.1,12.4-30.1,28.4c-0.4,8.6,4.2,10.8,8.2,11.2c0.3,0,0.7,0,1,0c4.6,0,7.6-3,9-8.9L120.9,160.6z"/>
	<path class="st0" d="M218.8,130.2c0,0-0.1,0-0.1,0c-0.1,0-0.2,0-0.3,0c-15.9,0-29.1,12.4-30.1,28.4c-0.4,8.6,4.2,10.8,8.2,11.2
		c0.3,0,0.7,0,1,0c6.9,0,8.4-6.6,9-8.9l0.1-0.3c0.3-2.3,1-4.4,2-6.5c2.6-4.4,7.8-6.6,12.7-5.2l0.3,0.1c5.4,1.1,9.3,5.7,9.5,11.2
		l0,0.3c0.4,3.5,1.6,6.1,3.7,7.6c1.3,1,3.5,2,6.9,1.5c3-0.5,8-2.5,7.5-11.1C248.1,142.6,234.7,130.2,218.8,130.2z"/>
</g>
</svg>
