<?xml version="1.0" encoding="utf-8"?>
<!-- Generator: Adobe Illustrator 24.1.1, SVG Export Plug-In . SVG Version: 6.00 Build 0)  -->
<svg version="1.1" id="Calque_1" xmlns="http://www.w3.org/2000/svg" xmlns:xlink="http://www.w3.org/1999/xlink" x="0px" y="0px"
	 viewBox="0 0 354 344" style="enable-background:new 0 0 354 344;" xml:space="preserve">
<style type="text/css">
	.st0{fill:none;}
	.st1{fill:#01A388;}
	.st2{fill:#254E75;}
	.st3{fill:url(#SVGID_1_);stroke:#254E75;stroke-width:2;stroke-miterlimit:10;}
	.st4{fill:url(#SVGID_2_);stroke:#254E75;stroke-width:2;stroke-miterlimit:10;}
	.st5{fill:url(#SVGID_3_);stroke:#254E75;stroke-width:2;stroke-miterlimit:10;}
	.st6{fill:url(#SVGID_4_);stroke:#254E75;stroke-width:2;stroke-miterlimit:10;}
	.st7{fill:url(#SVGID_5_);stroke:#254E75;stroke-width:2;stroke-miterlimit:10;}
	.st8{fill:url(#SVGID_6_);stroke:#254E75;stroke-width:2;stroke-miterlimit:10;}
	.st9{fill:url(#SVGID_7_);stroke:#254E75;stroke-width:2;stroke-miterlimit:10;}
	.st10{fill:url(#SVGID_8_);stroke:#254E75;stroke-width:2;stroke-miterlimit:10;}
	.st11{fill:url(#SVGID_9_);stroke:#254E75;stroke-width:2;stroke-miterlimit:10;}
	.st12{fill:url(#SVGID_10_);stroke:#254E75;stroke-width:2;stroke-miterlimit:10;}
	.st13{fill:url(#SVGID_11_);stroke:#254E75;stroke-width:2;stroke-miterlimit:10;}
	.st14{fill:url(#SVGID_12_);stroke:#254E75;stroke-width:2;stroke-miterlimit:10;}
	.st15{fill:url(#SVGID_13_);stroke:#254E75;stroke-width:2;stroke-miterlimit:10;}
	.st16{fill:url(#SVGID_14_);stroke:#254E75;stroke-width:2;stroke-miterlimit:10;}
</style>
<pattern  x="102" y="97" width="28.8" height="28.8" patternUnits="userSpaceOnUse" id="_x34_0_xA0__x25__10_ppp_3" viewBox="2.9 -31.7 28.8 28.8" style="overflow:visible;">
	<g>
		<rect x="2.9" y="-31.7" class="st0" width="28.8" height="28.8"/>
		<g>
			<path class="st1" d="M31.7,0c1.6,0,2.9-1.3,2.9-2.9c0-1.6-1.3-2.9-2.9-2.9c-1.6,0-2.9,1.3-2.9,2.9C28.8-1.3,30.1,0,31.7,0z"/>
			<path class="st1" d="M17.3,0c1.6,0,2.9-1.3,2.9-2.9c0-1.6-1.3-2.9-2.9-2.9c-1.6,0-2.9,1.3-2.9,2.9C14.4-1.3,15.7,0,17.3,0z"/>
			<path class="st1" d="M31.7-14.4c1.6,0,2.9-1.3,2.9-2.9s-1.3-2.9-2.9-2.9c-1.6,0-2.9,1.3-2.9,2.9S30.1-14.4,31.7-14.4z"/>
			<path class="st1" d="M17.3-14.4c1.6,0,2.9-1.3,2.9-2.9s-1.3-2.9-2.9-2.9c-1.6,0-2.9,1.3-2.9,2.9S15.7-14.4,17.3-14.4z"/>
			<path class="st1" d="M10.1-7.2c1.6,0,2.9-1.3,2.9-2.9c0-1.6-1.3-2.9-2.9-2.9c-1.6,0-2.9,1.3-2.9,2.9C7.2-8.5,8.5-7.2,10.1-7.2z"
				/>
			<path class="st1" d="M24.5-7.2c1.6,0,2.9-1.3,2.9-2.9c0-1.6-1.3-2.9-2.9-2.9c-1.6,0-2.9,1.3-2.9,2.9C21.6-8.5,22.9-7.2,24.5-7.2z
				"/>
			<path class="st1" d="M10.1-21.6c1.6,0,2.9-1.3,2.9-2.9c0-1.6-1.3-2.9-2.9-2.9c-1.6,0-2.9,1.3-2.9,2.9
				C7.2-22.9,8.5-21.6,10.1-21.6z"/>
			<path class="st1" d="M24.5-21.6c1.6,0,2.9-1.3,2.9-2.9c0-1.6-1.3-2.9-2.9-2.9c-1.6,0-2.9,1.3-2.9,2.9
				C21.6-22.9,22.9-21.6,24.5-21.6z"/>
		</g>
		<g>
			<path class="st1" d="M2.9,0c1.6,0,2.9-1.3,2.9-2.9c0-1.6-1.3-2.9-2.9-2.9C1.3-5.8,0-4.5,0-2.9C0-1.3,1.3,0,2.9,0z"/>
			<path class="st1" d="M2.9-14.4c1.6,0,2.9-1.3,2.9-2.9s-1.3-2.9-2.9-2.9c-1.6,0-2.9,1.3-2.9,2.9S1.3-14.4,2.9-14.4z"/>
		</g>
		<g>
			<path class="st1" d="M31.7-28.8c1.6,0,2.9-1.3,2.9-2.9c0-1.6-1.3-2.9-2.9-2.9c-1.6,0-2.9,1.3-2.9,2.9
				C28.8-30.1,30.1-28.8,31.7-28.8z"/>
			<path class="st1" d="M17.3-28.8c1.6,0,2.9-1.3,2.9-2.9c0-1.6-1.3-2.9-2.9-2.9c-1.6,0-2.9,1.3-2.9,2.9
				C14.4-30.1,15.7-28.8,17.3-28.8z"/>
		</g>
		<g>
			<path class="st1" d="M2.9-28.8c1.6,0,2.9-1.3,2.9-2.9c0-1.6-1.3-2.9-2.9-2.9c-1.6,0-2.9,1.3-2.9,2.9C0-30.1,1.3-28.8,2.9-28.8z"
				/>
		</g>
	</g>
</pattern>
<path class="st2" d="M177,302.1c-28.6,0-57.1,0-85.7,0c-19.8,0-32.4-12.1-32.6-31.8c-0.2-39.3-0.1-78.5-0.1-117.8
	c0-18.1-0.1-36.1,0.1-54.2c0.1-16.6,9.1-28.4,23.8-31.8c7.6-1.7,8.6-0.9,8.7,6.9c0,5.1-0.4,10.3,0.8,15.4
	c1.9,8.1,9.3,13.9,17.3,13.4c9-0.6,15.4-7,15.8-16.1c0.2-4.6,0.3-9.2,0-13.8c-0.2-4.8,1.6-6.4,6.4-6.4c26,0.2,52,0.1,78,0.1
	c4.1,0,8.1,0,12.2,0c7.1,0,7.3,0.2,7.4,7.6c0,4.1-0.1,8.1,0.1,12.2c0.3,9.4,6.2,15.6,15.4,16.3c8.6,0.7,16-5.1,17.8-13.9
	c1.1-5.3,0.5-10.7,0.6-16c0.2-5.8,1.3-6.7,7-5.9c15,2.2,25.3,15,25.4,32.1c0.1,28.9,0.1,57.9,0.1,86.8c0,27.6,0,55.3-0.1,82.9
	c0,21.9-12.1,34-33.7,34C233.4,302.1,205.2,302.1,177,302.1z M71.2,148 M71.1,268.5c0,15,6.1,21.1,21.1,21.1c56.4,0,112.8,0,169.2,0
	c15.4,0,21.4-6,21.4-21.4c0-45.9,0-91.8,0-137.7c0-7.5,0-7.6-7.7-7.6c-65.4,0-130.8,0-196.3,0c-1.5,0-2.9,0-4.4,0.1
	c-1.1,0-2.2,0.3-2.8,1.4"/>
<pattern  id="SVGID_1_" xlink:href="#_x34_0_xA0__x25__10_ppp_3" patternTransform="matrix(1 0 0 1 26 10.7967)">
</pattern>
<path class="st3" d="M117.2,143.5c-7.2,0.2-14.3,0.1-21.5,0c-3.7-0.1-5.4,1.3-5.4,5.1c0.1,7.3,0.1,14.7,0,22
	c-0.1,3.6,1.3,5.4,5.1,5.4c7.3-0.1,14.7-0.1,22,0c4.1,0.1,5.6-1.7,5.3-5.7c-0.2-3.5,0-7,0-10.5c0,0,0,0,0,0c0-3.5-0.2-7,0-10.5
	C123.1,145.3,121.6,143.4,117.2,143.5z"/>
<pattern  id="SVGID_2_" xlink:href="#_x34_0_xA0__x25__10_ppp_3" patternTransform="matrix(1 0 0 1 26 10.7967)">
</pattern>
<path class="st4" d="M163.9,143.5c-7.2,0.2-14.3,0.1-21.5,0c-3.7-0.1-5.4,1.3-5.4,5.1c0.1,7.3,0.1,14.7,0,22
	c-0.1,3.6,1.3,5.4,5.1,5.4c7.3-0.1,14.7-0.1,22,0c4.1,0.1,5.6-1.7,5.3-5.7c-0.2-3.5,0-7,0-10.5c0,0,0,0,0,0c0-3.5-0.2-7,0-10.5
	C169.8,145.3,168.3,143.4,163.9,143.5z"/>
<pattern  id="SVGID_3_" xlink:href="#_x34_0_xA0__x25__10_ppp_3" patternTransform="matrix(1 0 0 1 26 10.7967)">
</pattern>
<path class="st5" d="M211.2,143.5c-7.2,0.2-14.3,0.1-21.5,0c-3.7-0.1-5.4,1.3-5.4,5.1c0.1,7.3,0.1,14.7,0,22
	c-0.1,3.6,1.3,5.4,5.1,5.4c7.3-0.1,14.7-0.1,22,0c4.1,0.1,5.6-1.7,5.3-5.7c-0.2-3.5,0-7,0-10.5c0,0,0,0,0,0c0-3.5-0.2-7,0-10.5
	C217.1,145.3,215.6,143.4,211.2,143.5z"/>
<pattern  id="SVGID_4_" xlink:href="#_x34_0_xA0__x25__10_ppp_3" patternTransform="matrix(1 0 0 1 26 10.7967)">
</pattern>
<path class="st6" d="M257.9,143.5c-7.2,0.2-14.3,0.1-21.5,0c-3.7-0.1-5.4,1.3-5.4,5.1c0.1,7.3,0.1,14.7,0,22
	c-0.1,3.6,1.3,5.4,5.1,5.4c7.3-0.1,14.7-0.1,22,0c4.1,0.1,5.6-1.7,5.3-5.7c-0.2-3.5,0-7,0-10.5c0,0,0,0,0,0c0-3.5-0.2-7,0-10.5
	C263.8,145.3,262.3,143.4,257.9,143.5z"/>
<pattern  id="SVGID_5_" xlink:href="#_x34_0_xA0__x25__10_ppp_3" patternTransform="matrix(1 0 0 1 26 10.7967)">
</pattern>
<path class="st7" d="M117.2,190.4c-7.2,0.2-14.3,0.1-21.5,0c-3.7-0.1-5.4,1.3-5.4,5.1c0.1,7.3,0.1,14.7,0,22
	c-0.1,3.6,1.3,5.4,5.1,5.4c7.3-0.1,14.7-0.1,22,0c4.1,0.1,5.6-1.7,5.3-5.7c-0.2-3.5,0-7,0-10.5c0,0,0,0,0,0c0-3.5-0.2-7,0-10.5
	C123.1,192.2,121.6,190.3,117.2,190.4z"/>
<pattern  id="SVGID_6_" xlink:href="#_x34_0_xA0__x25__10_ppp_3" patternTransform="matrix(1 0 0 1 26 10.7967)">
</pattern>
<path class="st8" d="M163.9,190.4c-7.2,0.2-14.3,0.1-21.5,0c-3.7-0.1-5.4,1.3-5.4,5.1c0.1,7.3,0.1,14.7,0,22
	c-0.1,3.6,1.3,5.4,5.1,5.4c7.3-0.1,14.7-0.1,22,0c4.1,0.1,5.6-1.7,5.3-5.7c-0.2-3.5,0-7,0-10.5c0,0,0,0,0,0c0-3.5-0.2-7,0-10.5
	C169.8,192.2,168.3,190.3,163.9,190.4z"/>
<pattern  id="SVGID_7_" xlink:href="#_x34_0_xA0__x25__10_ppp_3" patternTransform="matrix(1 0 0 1 26 10.7967)">
</pattern>
<path class="st9" d="M211.2,190.4c-7.2,0.2-14.3,0.1-21.5,0c-3.7-0.1-5.4,1.3-5.4,5.1c0.1,7.3,0.1,14.7,0,22
	c-0.1,3.6,1.3,5.4,5.1,5.4c7.3-0.1,14.7-0.1,22,0c4.1,0.1,5.6-1.7,5.3-5.7c-0.2-3.5,0-7,0-10.5c0,0,0,0,0,0c0-3.5-0.2-7,0-10.5
	C217.1,192.2,215.6,190.3,211.2,190.4z"/>
<pattern  id="SVGID_8_" xlink:href="#_x34_0_xA0__x25__10_ppp_3" patternTransform="matrix(1 0 0 1 26 10.7967)">
</pattern>
<path class="st10" d="M257.9,190.4c-7.2,0.2-14.3,0.1-21.5,0c-3.7-0.1-5.4,1.3-5.4,5.1c0.1,7.3,0.1,14.7,0,22
	c-0.1,3.6,1.3,5.4,5.1,5.4c7.3-0.1,14.7-0.1,22,0c4.1,0.1,5.6-1.7,5.3-5.7c-0.2-3.5,0-7,0-10.5c0,0,0,0,0,0c0-3.5-0.2-7,0-10.5
	C263.8,192.2,262.3,190.3,257.9,190.4z"/>
<pattern  id="SVGID_9_" xlink:href="#_x34_0_xA0__x25__10_ppp_3" patternTransform="matrix(1 0 0 1 26 10.7967)">
</pattern>
<path class="st11" d="M117.2,237.4c-7.2,0.2-14.3,0.1-21.5,0c-3.7-0.1-5.4,1.3-5.4,5.1c0.1,7.3,0.1,14.7,0,22
	c-0.1,3.6,1.3,5.4,5.1,5.4c7.3-0.1,14.7-0.1,22,0c4.1,0.1,5.6-1.7,5.3-5.7c-0.2-3.5,0-7,0-10.5c0,0,0,0,0,0c0-3.5-0.2-7,0-10.5
	C123.1,239.2,121.6,237.3,117.2,237.4z"/>
<pattern  id="SVGID_10_" xlink:href="#_x34_0_xA0__x25__10_ppp_3" patternTransform="matrix(1 0 0 1 26 10.7967)">
</pattern>
<path class="st12" d="M163.9,237.4c-7.2,0.2-14.3,0.1-21.5,0c-3.7-0.1-5.4,1.3-5.4,5.1c0.1,7.3,0.1,14.7,0,22
	c-0.1,3.6,1.3,5.4,5.1,5.4c7.3-0.1,14.7-0.1,22,0c4.1,0.1,5.6-1.7,5.3-5.7c-0.2-3.5,0-7,0-10.5c0,0,0,0,0,0c0-3.5-0.2-7,0-10.5
	C169.8,239.2,168.3,237.3,163.9,237.4z"/>
<pattern  id="SVGID_11_" xlink:href="#_x34_0_xA0__x25__10_ppp_3" patternTransform="matrix(1 0 0 1 26 10.7967)">
</pattern>
<path class="st13" d="M211.2,237.4c-7.2,0.2-14.3,0.1-21.5,0c-3.7-0.1-5.4,1.3-5.4,5.1c0.1,7.3,0.1,14.7,0,22
	c-0.1,3.6,1.3,5.4,5.1,5.4c7.3-0.1,14.7-0.1,22,0c4.1,0.1,5.6-1.7,5.3-5.7c-0.2-3.5,0-7,0-10.5c0,0,0,0,0,0c0-3.5-0.2-7,0-10.5
	C217.1,239.2,215.6,237.3,211.2,237.4z"/>
<pattern  id="SVGID_12_" xlink:href="#_x34_0_xA0__x25__10_ppp_3" patternTransform="matrix(1 0 0 1 26 10.7967)">
</pattern>
<path class="st14" d="M257.9,237.4c-7.2,0.2-14.3,0.1-21.5,0c-3.7-0.1-5.4,1.3-5.4,5.1c0.1,7.3,0.1,14.7,0,22
	c-0.1,3.6,1.3,5.4,5.1,5.4c7.3-0.1,14.7-0.1,22,0c4.1,0.1,5.6-1.7,5.3-5.7c-0.2-3.5,0-7,0-10.5c0,0,0,0,0,0c0-3.5-0.2-7,0-10.5
	C263.8,239.2,262.3,237.3,257.9,237.4z"/>
<pattern  id="SVGID_13_" xlink:href="#_x34_0_xA0__x25__10_ppp_3" patternTransform="matrix(1 0 0 1 26 10.7967)">
</pattern>
<path class="st15" d="M119.4,69.5c0-5.7,0.5-11.5-0.1-17.1c-0.8-7.1-6-11.2-12.4-10.7c-6.4,0.4-10.5,5.2-10.6,12.4
	c-0.1,9.9-0.1,19.9,0,29.8c0.1,7.4,4.5,12.4,11,12.7c6.2,0.3,11.3-4.1,12-11.2C119.9,80.2,119.4,74.8,119.4,69.5
	C119.4,69.5,119.4,69.5,119.4,69.5z"/>
<pattern  id="SVGID_14_" xlink:href="#_x34_0_xA0__x25__10_ppp_3" patternTransform="matrix(1 0 0 1 26 10.7967)">
</pattern>
<path class="st16" d="M257.3,69.5c0-5.7,0.5-11.5-0.1-17.1c-0.8-7.1-6-11.2-12.4-10.7c-6.4,0.4-10.5,5.2-10.6,12.4
	c-0.1,9.9-0.1,19.9,0,29.8c0.1,7.4,4.5,12.4,11,12.7c6.2,0.3,11.3-4.1,12-11.2C257.7,80.2,257.3,74.8,257.3,69.5
	C257.3,69.5,257.3,69.5,257.3,69.5z"/>
</svg>
