<?xml version="1.0" encoding="utf-8"?>
<!-- Generator: Adobe Illustrator 24.1.1, SVG Export Plug-In . SVG Version: 6.00 Build 0)  -->
<svg version="1.1" id="Calque_1" xmlns="http://www.w3.org/2000/svg" xmlns:xlink="http://www.w3.org/1999/xlink" x="0px" y="0px"
	 viewBox="0 0 354 344" style="enable-background:new 0 0 354 344;" xml:space="preserve">
<style type="text/css">
	.st0{fill:none;}
	.st1{fill:#01A388;}
	.st2{fill:url(#SVGID_1_);}
	.st3{fill:#254C73;}
</style>
<pattern  y="344" width="28.8" height="28.8" patternUnits="userSpaceOnUse" id="_x34_0_xA0__x25__10_ppp_2" viewBox="2.9 -31.7 28.8 28.8" style="overflow:visible;">
	<g>
		<rect x="2.9" y="-31.7" class="st0" width="28.8" height="28.8"/>
		<g>
			<path class="st1" d="M31.7,0c1.6,0,2.9-1.3,2.9-2.9c0-1.6-1.3-2.9-2.9-2.9c-1.6,0-2.9,1.3-2.9,2.9C28.8-1.3,30.1,0,31.7,0z"/>
			<path class="st1" d="M17.3,0c1.6,0,2.9-1.3,2.9-2.9c0-1.6-1.3-2.9-2.9-2.9c-1.6,0-2.9,1.3-2.9,2.9C14.4-1.3,15.7,0,17.3,0z"/>
			<path class="st1" d="M31.7-14.4c1.6,0,2.9-1.3,2.9-2.9s-1.3-2.9-2.9-2.9c-1.6,0-2.9,1.3-2.9,2.9S30.1-14.4,31.7-14.4z"/>
			<path class="st1" d="M17.3-14.4c1.6,0,2.9-1.3,2.9-2.9s-1.3-2.9-2.9-2.9c-1.6,0-2.9,1.3-2.9,2.9S15.7-14.4,17.3-14.4z"/>
			<path class="st1" d="M10.1-7.2c1.6,0,2.9-1.3,2.9-2.9c0-1.6-1.3-2.9-2.9-2.9c-1.6,0-2.9,1.3-2.9,2.9C7.2-8.5,8.5-7.2,10.1-7.2z"
				/>
			<path class="st1" d="M24.5-7.2c1.6,0,2.9-1.3,2.9-2.9c0-1.6-1.3-2.9-2.9-2.9c-1.6,0-2.9,1.3-2.9,2.9C21.6-8.5,22.9-7.2,24.5-7.2z
				"/>
			<path class="st1" d="M10.1-21.6c1.6,0,2.9-1.3,2.9-2.9c0-1.6-1.3-2.9-2.9-2.9c-1.6,0-2.9,1.3-2.9,2.9
				C7.2-22.9,8.5-21.6,10.1-21.6z"/>
			<path class="st1" d="M24.5-21.6c1.6,0,2.9-1.3,2.9-2.9c0-1.6-1.3-2.9-2.9-2.9c-1.6,0-2.9,1.3-2.9,2.9
				C21.6-22.9,22.9-21.6,24.5-21.6z"/>
		</g>
		<g>
			<path class="st1" d="M2.9,0c1.6,0,2.9-1.3,2.9-2.9c0-1.6-1.3-2.9-2.9-2.9C1.3-5.8,0-4.5,0-2.9C0-1.3,1.3,0,2.9,0z"/>
			<path class="st1" d="M2.9-14.4c1.6,0,2.9-1.3,2.9-2.9s-1.3-2.9-2.9-2.9c-1.6,0-2.9,1.3-2.9,2.9S1.3-14.4,2.9-14.4z"/>
		</g>
		<g>
			<path class="st1" d="M31.7-28.8c1.6,0,2.9-1.3,2.9-2.9c0-1.6-1.3-2.9-2.9-2.9c-1.6,0-2.9,1.3-2.9,2.9
				C28.8-30.1,30.1-28.8,31.7-28.8z"/>
			<path class="st1" d="M17.3-28.8c1.6,0,2.9-1.3,2.9-2.9c0-1.6-1.3-2.9-2.9-2.9c-1.6,0-2.9,1.3-2.9,2.9
				C14.4-30.1,15.7-28.8,17.3-28.8z"/>
		</g>
		<g>
			<path class="st1" d="M2.9-28.8c1.6,0,2.9-1.3,2.9-2.9c0-1.6-1.3-2.9-2.9-2.9c-1.6,0-2.9,1.3-2.9,2.9C0-30.1,1.3-28.8,2.9-28.8z"
				/>
		</g>
	</g>
</pattern>
<g>
	<pattern  id="SVGID_1_" xlink:href="#_x34_0_xA0__x25__10_ppp_2" patternTransform="matrix(1 0 0 1 -16.4014 -19.7885)">
	</pattern>
	<path class="st2" d="M176,129.5c-23.2,0-42,18.8-42,42s18.8,42,42,42s42-18.8,42-42C218,148.4,199.2,129.5,176,129.5z"/>
	<path class="st3" d="M176,112.7c-32.4,0-58.8,26.4-58.8,58.8c0,32.4,26.4,58.8,58.8,58.8c32.4,0,58.8-26.4,58.8-58.8
		C234.8,139.1,208.4,112.7,176,112.7z M176,213.5c-23.1,0-42-18.8-42-42s18.8-42,42-42c23.1,0,42,18.8,42,42
		C218,194.7,199.1,213.5,176,213.5z"/>
	<path class="st3" d="M176,89.2c4.7,0,8.4-3.8,8.4-8.4V60.6c0-4.7-3.8-8.4-8.4-8.4s-8.4,3.8-8.4,8.4v20.2
		C167.6,85.4,171.3,89.2,176,89.2z"/>
	<path class="st3" d="M176,253.8c-4.7,0-8.4,3.8-8.4,8.4v20.2c0,4.7,3.8,8.4,8.4,8.4s8.4-3.8,8.4-8.4v-20.2
		C184.4,257.6,180.7,253.8,176,253.8z"/>
	<path class="st3" d="M105.9,113.4c1.6,1.6,3.8,2.5,6,2.5c2.2,0,4.3-0.8,6-2.5c3.3-3.3,3.3-8.6,0-11.9l-14.3-14.3
		c-3.3-3.3-8.6-3.3-11.9,0c-3.3,3.3-3.3,8.6,0,11.9L105.9,113.4z"/>
	<path class="st3" d="M246.1,229.7c-3.3-3.3-8.6-3.3-11.9,0c-3.3,3.3-3.3,8.6,0,11.9l14.3,14.3c1.6,1.6,3.8,2.5,6,2.5
		c2.2,0,4.3-0.8,6-2.5c3.3-3.3,3.3-8.6,0-11.9L246.1,229.7z"/>
	<path class="st3" d="M93.7,171.5c0-4.7-3.8-8.4-8.4-8.4H65.1c-4.7,0-8.4,3.8-8.4,8.4s3.8,8.4,8.4,8.4h20.2
		C89.9,179.9,93.7,176.2,93.7,171.5z"/>
	<path class="st3" d="M286.9,163.1h-20.2c-4.7,0-8.4,3.8-8.4,8.4s3.8,8.4,8.4,8.4h20.2c4.7,0,8.4-3.8,8.4-8.4
		S291.5,163.1,286.9,163.1z"/>
	<path class="st3" d="M105.9,229.7L91.6,244c-3.3,3.3-3.3,8.6,0,11.9c1.6,1.6,3.8,2.5,6,2.5s4.3-0.8,6-2.5l14.3-14.3
		c3.3-3.3,3.3-8.6,0-11.9C114.6,226.4,109.2,226.4,105.9,229.7z"/>
	<path class="st3" d="M240.1,115.8c2.2,0,4.3-0.8,6-2.5L260.4,99c3.3-3.3,3.3-8.6,0-11.9c-3.3-3.3-8.6-3.3-11.9,0l-14.3,14.3
		c-3.3,3.3-3.3,8.6,0,11.9C235.8,115,238,115.8,240.1,115.8z"/>
</g>
</svg>
