<?xml version="1.0" encoding="utf-8"?>
<!-- Generator: Adobe Illustrator 24.1.1, SVG Export Plug-In . SVG Version: 6.00 Build 0)  -->
<svg version="1.1" id="Calque_1" xmlns="http://www.w3.org/2000/svg" xmlns:xlink="http://www.w3.org/1999/xlink" x="0px" y="0px"
	 viewBox="0 0 354 344" style="enable-background:new 0 0 354 344;" xml:space="preserve">
<style type="text/css">
	.st0{fill:#FDCC7D;}
</style>
<path id="Icon_ionic-ios-star" class="st0" d="M298,133.8h-86.7L185,55.2c-1.8-4.9-7.3-7.5-12.3-5.7c-2.6,1-4.7,3-5.7,5.7
	l-26.3,78.6H53.4c-5.2,0-9.4,4.2-9.4,9.4c0,0.5,0.1,1.1,0.2,1.6c0.3,2.7,1.7,5.1,3.9,6.7l71.2,50.2L92,281.2
	c-1.3,3.9,0,8.1,3.2,10.6c1.5,1.3,3.3,2.1,5.3,2.3c2.1-0.2,4.2-0.9,5.9-2.1l69.5-49.6l69.5,49.6c1.7,1.3,3.8,2,5.9,2.1
	c2-0.1,3.8-0.9,5.2-2.3c3.3-2.4,4.6-6.7,3.2-10.6l-27.3-79.5l70.7-50.7l1.7-1.5c1.8-1.7,2.8-3.9,3.1-6.3
	C307.7,137.9,303.3,133.8,298,133.8z"/>
</svg>
