<?xml version="1.0" encoding="utf-8"?>
<!-- Generator: Adobe Illustrator 24.1.1, SVG Export Plug-In . SVG Version: 6.00 Build 0)  -->
<svg version="1.1" id="Calque_1" xmlns="http://www.w3.org/2000/svg" xmlns:xlink="http://www.w3.org/1999/xlink" x="0px" y="0px"
	 viewBox="0 0 354 344" style="enable-background:new 0 0 354 344;" xml:space="preserve">
<style type="text/css">
	.st0{fill:none;}
	.st1{fill:#01A388;}
	.st2{fill:url(#SVGID_1_);stroke:#254E75;stroke-width:2;stroke-miterlimit:10;}
	.st3{fill:url(#SVGID_2_);stroke:#254E75;stroke-width:2;stroke-miterlimit:10;}
	.st4{fill:url(#SVGID_3_);stroke:#254E75;stroke-width:2;stroke-miterlimit:10;}
	.st5{fill:url(#SVGID_4_);stroke:#254E75;stroke-width:2;stroke-miterlimit:10;}
	.st6{fill:#254E75;}
	.st7{fill:none;stroke:#254E75;stroke-width:15.92;stroke-miterlimit:10;}
</style>
<pattern  x="102" y="97" width="28.8" height="28.8" patternUnits="userSpaceOnUse" id="_x34_0_xA0__x25__10_ppp_3" viewBox="2.9 -31.7 28.8 28.8" style="overflow:visible;">
	<g>
		<rect x="2.9" y="-31.7" class="st0" width="28.8" height="28.8"/>
		<g>
			<path class="st1" d="M31.7,0c1.6,0,2.9-1.3,2.9-2.9c0-1.6-1.3-2.9-2.9-2.9c-1.6,0-2.9,1.3-2.9,2.9C28.8-1.3,30.1,0,31.7,0z"/>
			<path class="st1" d="M17.3,0c1.6,0,2.9-1.3,2.9-2.9c0-1.6-1.3-2.9-2.9-2.9c-1.6,0-2.9,1.3-2.9,2.9C14.4-1.3,15.7,0,17.3,0z"/>
			<path class="st1" d="M31.7-14.4c1.6,0,2.9-1.3,2.9-2.9s-1.3-2.9-2.9-2.9c-1.6,0-2.9,1.3-2.9,2.9S30.1-14.4,31.7-14.4z"/>
			<path class="st1" d="M17.3-14.4c1.6,0,2.9-1.3,2.9-2.9s-1.3-2.9-2.9-2.9c-1.6,0-2.9,1.3-2.9,2.9S15.7-14.4,17.3-14.4z"/>
			<path class="st1" d="M10.1-7.2c1.6,0,2.9-1.3,2.9-2.9c0-1.6-1.3-2.9-2.9-2.9c-1.6,0-2.9,1.3-2.9,2.9C7.2-8.5,8.5-7.2,10.1-7.2z"
				/>
			<path class="st1" d="M24.5-7.2c1.6,0,2.9-1.3,2.9-2.9c0-1.6-1.3-2.9-2.9-2.9c-1.6,0-2.9,1.3-2.9,2.9C21.6-8.5,22.9-7.2,24.5-7.2z
				"/>
			<path class="st1" d="M10.1-21.6c1.6,0,2.9-1.3,2.9-2.9c0-1.6-1.3-2.9-2.9-2.9c-1.6,0-2.9,1.3-2.9,2.9
				C7.2-22.9,8.5-21.6,10.1-21.6z"/>
			<path class="st1" d="M24.5-21.6c1.6,0,2.9-1.3,2.9-2.9c0-1.6-1.3-2.9-2.9-2.9c-1.6,0-2.9,1.3-2.9,2.9
				C21.6-22.9,22.9-21.6,24.5-21.6z"/>
		</g>
		<g>
			<path class="st1" d="M2.9,0c1.6,0,2.9-1.3,2.9-2.9c0-1.6-1.3-2.9-2.9-2.9C1.3-5.8,0-4.5,0-2.9C0-1.3,1.3,0,2.9,0z"/>
			<path class="st1" d="M2.9-14.4c1.6,0,2.9-1.3,2.9-2.9s-1.3-2.9-2.9-2.9c-1.6,0-2.9,1.3-2.9,2.9S1.3-14.4,2.9-14.4z"/>
		</g>
		<g>
			<path class="st1" d="M31.7-28.8c1.6,0,2.9-1.3,2.9-2.9c0-1.6-1.3-2.9-2.9-2.9c-1.6,0-2.9,1.3-2.9,2.9
				C28.8-30.1,30.1-28.8,31.7-28.8z"/>
			<path class="st1" d="M17.3-28.8c1.6,0,2.9-1.3,2.9-2.9c0-1.6-1.3-2.9-2.9-2.9c-1.6,0-2.9,1.3-2.9,2.9
				C14.4-30.1,15.7-28.8,17.3-28.8z"/>
		</g>
		<g>
			<path class="st1" d="M2.9-28.8c1.6,0,2.9-1.3,2.9-2.9c0-1.6-1.3-2.9-2.9-2.9c-1.6,0-2.9,1.3-2.9,2.9C0-30.1,1.3-28.8,2.9-28.8z"
				/>
		</g>
	</g>
</pattern>
<pattern  id="SVGID_1_" xlink:href="#_x34_0_xA0__x25__10_ppp_3" patternTransform="matrix(1 0 0 1 26 10.7967)">
</pattern>
<path class="st2" d="M241.9,229.5h-141c-3.9,0-7.1,3.2-7.1,7.1s3.2,7.1,7.1,7.1h141c3.9,0,7.1-3.2,7.1-7.1S245.8,229.5,241.9,229.5z
	"/>
<pattern  id="SVGID_2_" xlink:href="#_x34_0_xA0__x25__10_ppp_3" patternTransform="matrix(1 0 0 1 26 10.7967)">
</pattern>
<path class="st3" d="M241.9,187.2h-141c-3.9,0-7.1,3.2-7.1,7.1s3.2,7.1,7.1,7.1h141c3.9,0,7.1-3.2,7.1-7.1S245.8,187.2,241.9,187.2z
	"/>
<pattern  id="SVGID_3_" xlink:href="#_x34_0_xA0__x25__10_ppp_3" patternTransform="matrix(1 0 0 1 26 10.7967)">
</pattern>
<path class="st4" d="M241.9,144.9h-141c-3.9,0-7.1,3.2-7.1,7.1s3.2,7.1,7.1,7.1h141c3.9,0,7.1-3.2,7.1-7.1S245.8,144.9,241.9,144.9z
	"/>
<pattern  id="SVGID_4_" xlink:href="#_x34_0_xA0__x25__10_ppp_3" patternTransform="matrix(1 0 0 1 26 10.7967)">
</pattern>
<path class="st5" d="M245.3,45.3h-21.9c-3.3-16.1-17.5-28.2-34.6-28.2s-31.3,12.1-34.6,28.2h-21.9c-3.9,0-7.1,3.2-7.1,7.1v28.2
	c0,11.7,9.5,21.2,21.2,21.2h84.6c11.7,0,21.2-9.5,21.2-21.2V52.4C252.3,48.5,249.2,45.3,245.3,45.3z"/>
<path class="st6" d="M227.8,46.2H206C202.7,30.1,188.4,18,171.4,18s-31.3,12.1-34.6,28.2H115c-3.9,0-7.1,3.2-7.1,7.1v28.2
	c0,11.7,9.5,21.2,21.2,21.2h84.6c11.7,0,21.2-9.5,21.2-21.2V53.2C234.9,49.4,231.7,46.2,227.8,46.2z"/>
<path class="st7" d="M291.5,311.9H51.3c-19.9,0-36-16.1-36-36V103.6c0-19.9,16.1-36,36-36h240.2c19.9,0,36,16.1,36,36v172.3
	C327.5,295.8,311.4,311.9,291.5,311.9z"/>
</svg>
