<?xml version="1.0" encoding="utf-8"?>
<!-- Generator: Adobe Illustrator 24.1.1, SVG Export Plug-In . SVG Version: 6.00 Build 0)  -->
<svg version="1.1" id="Calque_1" xmlns="http://www.w3.org/2000/svg" xmlns:xlink="http://www.w3.org/1999/xlink" x="0px" y="0px"
	 viewBox="0 0 354 344" style="enable-background:new 0 0 354 344;" xml:space="preserve">
<style type="text/css">
	.st0{fill:none;}
	.st1{fill:#01A388;}
	.st2{fill:url(#SVGID_1_);stroke:#254E75;stroke-width:2;stroke-miterlimit:10;}
	.st3{fill:#254C73;}
</style>
<pattern  x="102" y="97" width="28.8" height="28.8" patternUnits="userSpaceOnUse" id="_x34_0_xA0__x25__10_ppp_3" viewBox="2.9 -31.7 28.8 28.8" style="overflow:visible;">
	<g>
		<rect x="2.9" y="-31.7" class="st0" width="28.8" height="28.8"/>
		<g>
			<path class="st1" d="M31.7,0c1.6,0,2.9-1.3,2.9-2.9c0-1.6-1.3-2.9-2.9-2.9c-1.6,0-2.9,1.3-2.9,2.9C28.8-1.3,30.1,0,31.7,0z"/>
			<path class="st1" d="M17.3,0c1.6,0,2.9-1.3,2.9-2.9c0-1.6-1.3-2.9-2.9-2.9c-1.6,0-2.9,1.3-2.9,2.9C14.4-1.3,15.7,0,17.3,0z"/>
			<path class="st1" d="M31.7-14.4c1.6,0,2.9-1.3,2.9-2.9s-1.3-2.9-2.9-2.9c-1.6,0-2.9,1.3-2.9,2.9S30.1-14.4,31.7-14.4z"/>
			<path class="st1" d="M17.3-14.4c1.6,0,2.9-1.3,2.9-2.9s-1.3-2.9-2.9-2.9c-1.6,0-2.9,1.3-2.9,2.9S15.7-14.4,17.3-14.4z"/>
			<path class="st1" d="M10.1-7.2c1.6,0,2.9-1.3,2.9-2.9c0-1.6-1.3-2.9-2.9-2.9c-1.6,0-2.9,1.3-2.9,2.9C7.2-8.5,8.5-7.2,10.1-7.2z"
				/>
			<path class="st1" d="M24.5-7.2c1.6,0,2.9-1.3,2.9-2.9c0-1.6-1.3-2.9-2.9-2.9c-1.6,0-2.9,1.3-2.9,2.9C21.6-8.5,22.9-7.2,24.5-7.2z
				"/>
			<path class="st1" d="M10.1-21.6c1.6,0,2.9-1.3,2.9-2.9c0-1.6-1.3-2.9-2.9-2.9c-1.6,0-2.9,1.3-2.9,2.9
				C7.2-22.9,8.5-21.6,10.1-21.6z"/>
			<path class="st1" d="M24.5-21.6c1.6,0,2.9-1.3,2.9-2.9c0-1.6-1.3-2.9-2.9-2.9c-1.6,0-2.9,1.3-2.9,2.9
				C21.6-22.9,22.9-21.6,24.5-21.6z"/>
		</g>
		<g>
			<path class="st1" d="M2.9,0c1.6,0,2.9-1.3,2.9-2.9c0-1.6-1.3-2.9-2.9-2.9C1.3-5.8,0-4.5,0-2.9C0-1.3,1.3,0,2.9,0z"/>
			<path class="st1" d="M2.9-14.4c1.6,0,2.9-1.3,2.9-2.9s-1.3-2.9-2.9-2.9c-1.6,0-2.9,1.3-2.9,2.9S1.3-14.4,2.9-14.4z"/>
		</g>
		<g>
			<path class="st1" d="M31.7-28.8c1.6,0,2.9-1.3,2.9-2.9c0-1.6-1.3-2.9-2.9-2.9c-1.6,0-2.9,1.3-2.9,2.9
				C28.8-30.1,30.1-28.8,31.7-28.8z"/>
			<path class="st1" d="M17.3-28.8c1.6,0,2.9-1.3,2.9-2.9c0-1.6-1.3-2.9-2.9-2.9c-1.6,0-2.9,1.3-2.9,2.9
				C14.4-30.1,15.7-28.8,17.3-28.8z"/>
		</g>
		<g>
			<path class="st1" d="M2.9-28.8c1.6,0,2.9-1.3,2.9-2.9c0-1.6-1.3-2.9-2.9-2.9c-1.6,0-2.9,1.3-2.9,2.9C0-30.1,1.3-28.8,2.9-28.8z"
				/>
		</g>
	</g>
</pattern>
<pattern  id="SVGID_1_" xlink:href="#_x34_0_xA0__x25__10_ppp_3" patternTransform="matrix(1 0 0 1 26 10.7967)">
</pattern>
<path class="st2" d="M236,43.5c-16.2-16.2-42.5-16.2-58.6,0L65.9,155c-3.5,3.5-3.5,9.2,0,12.7c3.5,3.5,9.2,3.5,12.7,0l7.1-7.1v113.9
	c0,14.2,11.5,25.8,25.8,25.8h44.8c3.1,0,5.6-2.5,5.6-5.6v-82.9c0-15.5,12.5-28,28-28h33.6c15.5,0,28,12.5,28,28v82.9
	c0,3.1,2.5,5.6,5.6,5.6h44.8c14.2,0,25.8-11.5,25.8-25.8V160.5l7.1,7.1c1.7,1.7,4,2.6,6.3,2.6c2.3,0,4.6-0.9,6.3-2.6
	c3.5-3.5,3.5-9.2,0-12.7L236,43.5z"/>
<g>
	<g>
		<g>
			<path class="st3" d="M315.6,156L204.2,44.5c-16.2-16.2-42.5-16.2-58.6,0L34.1,156c-3.5,3.5-3.5,9.2,0,12.7
				c3.5,3.5,9.2,3.5,12.7,0l7.1-7.1v113.9c0,14.2,11.5,25.8,25.8,25.8h44.8c3.1,0,5.6-2.5,5.6-5.6v-82.9c0-15.5,12.5-28,28-28h33.6
				c15.5,0,28,12.5,28,28v82.9c0,3.1,2.5,5.6,5.6,5.6h44.8c14.2,0,25.8-11.5,25.8-25.8V161.6l7.1,7.1c1.7,1.7,4,2.6,6.3,2.6
				c2.3,0,4.6-0.9,6.3-2.6C319.1,165.2,319.1,159.5,315.6,156L315.6,156z M315.6,156"/>
		</g>
	</g>
</g>
</svg>
