<?xml version="1.0" encoding="utf-8"?>
<!-- Generator: Adobe Illustrator 24.1.1, SVG Export Plug-In . SVG Version: 6.00 Build 0)  -->
<svg version="1.1" id="Calque_1" xmlns="http://www.w3.org/2000/svg" xmlns:xlink="http://www.w3.org/1999/xlink" x="0px" y="0px"
	 viewBox="0 0 354 344" style="enable-background:new 0 0 354 344;" xml:space="preserve">
<style type="text/css">
	.st0{fill:none;}
	.st1{fill:#01A388;}
	.st2{fill:url(#SVGID_1_);stroke:#254E75;stroke-width:1.3981;stroke-miterlimit:10;}
	.st3{fill:#254C73;}
</style>
<pattern  y="344" width="28.8" height="28.8" patternUnits="userSpaceOnUse" id="_x34_0_xA0__x25__10_ppp_2" viewBox="2.9 -31.7 28.8 28.8" style="overflow:visible;">
	<g>
		<rect x="2.9" y="-31.7" class="st0" width="28.8" height="28.8"/>
		<g>
			<path class="st1" d="M31.7,0c1.6,0,2.9-1.3,2.9-2.9c0-1.6-1.3-2.9-2.9-2.9c-1.6,0-2.9,1.3-2.9,2.9C28.8-1.3,30.1,0,31.7,0z"/>
			<path class="st1" d="M17.3,0c1.6,0,2.9-1.3,2.9-2.9c0-1.6-1.3-2.9-2.9-2.9c-1.6,0-2.9,1.3-2.9,2.9C14.4-1.3,15.7,0,17.3,0z"/>
			<path class="st1" d="M31.7-14.4c1.6,0,2.9-1.3,2.9-2.9s-1.3-2.9-2.9-2.9c-1.6,0-2.9,1.3-2.9,2.9S30.1-14.4,31.7-14.4z"/>
			<path class="st1" d="M17.3-14.4c1.6,0,2.9-1.3,2.9-2.9s-1.3-2.9-2.9-2.9c-1.6,0-2.9,1.3-2.9,2.9S15.7-14.4,17.3-14.4z"/>
			<path class="st1" d="M10.1-7.2c1.6,0,2.9-1.3,2.9-2.9c0-1.6-1.3-2.9-2.9-2.9c-1.6,0-2.9,1.3-2.9,2.9C7.2-8.5,8.5-7.2,10.1-7.2z"
				/>
			<path class="st1" d="M24.5-7.2c1.6,0,2.9-1.3,2.9-2.9c0-1.6-1.3-2.9-2.9-2.9c-1.6,0-2.9,1.3-2.9,2.9C21.6-8.5,22.9-7.2,24.5-7.2z
				"/>
			<path class="st1" d="M10.1-21.6c1.6,0,2.9-1.3,2.9-2.9c0-1.6-1.3-2.9-2.9-2.9c-1.6,0-2.9,1.3-2.9,2.9
				C7.2-22.9,8.5-21.6,10.1-21.6z"/>
			<path class="st1" d="M24.5-21.6c1.6,0,2.9-1.3,2.9-2.9c0-1.6-1.3-2.9-2.9-2.9c-1.6,0-2.9,1.3-2.9,2.9
				C21.6-22.9,22.9-21.6,24.5-21.6z"/>
		</g>
		<g>
			<path class="st1" d="M2.9,0c1.6,0,2.9-1.3,2.9-2.9c0-1.6-1.3-2.9-2.9-2.9C1.3-5.8,0-4.5,0-2.9C0-1.3,1.3,0,2.9,0z"/>
			<path class="st1" d="M2.9-14.4c1.6,0,2.9-1.3,2.9-2.9s-1.3-2.9-2.9-2.9c-1.6,0-2.9,1.3-2.9,2.9S1.3-14.4,2.9-14.4z"/>
		</g>
		<g>
			<path class="st1" d="M31.7-28.8c1.6,0,2.9-1.3,2.9-2.9c0-1.6-1.3-2.9-2.9-2.9c-1.6,0-2.9,1.3-2.9,2.9
				C28.8-30.1,30.1-28.8,31.7-28.8z"/>
			<path class="st1" d="M17.3-28.8c1.6,0,2.9-1.3,2.9-2.9c0-1.6-1.3-2.9-2.9-2.9c-1.6,0-2.9,1.3-2.9,2.9
				C14.4-30.1,15.7-28.8,17.3-28.8z"/>
		</g>
		<g>
			<path class="st1" d="M2.9-28.8c1.6,0,2.9-1.3,2.9-2.9c0-1.6-1.3-2.9-2.9-2.9c-1.6,0-2.9,1.3-2.9,2.9C0-30.1,1.3-28.8,2.9-28.8z"
				/>
		</g>
	</g>
</pattern>
<pattern  id="SVGID_1_" xlink:href="#_x34_0_xA0__x25__10_ppp_2" patternTransform="matrix(1 0 0 1 11.8028 -6.7967)">
</pattern>
<path class="st2" d="M182.2,72.2c-0.6-0.8-1.4-1.7-2.2-2.2c-3.4-2.2-7.8-1.1-10.1,2.2c-3.6,5.9-7.8,12-12.9,19.3
	c-22.1,32.4-55.1,81.4-55.1,109.3c0,20.4,8.4,38.9,21.8,52.3c13.4,13.1,31.9,21.5,52.3,21.5s38.9-8.4,52.3-21.8
	c13.4-13.4,21.8-31.9,21.8-52.3c0-28-33-76.6-55.1-109.1C190.3,84.5,186.1,78,182.2,72.2z"/>
<path class="st3" d="M176.1,274.6c20.4,0,38.9-8.4,52.3-21.8c13.4-13.4,21.8-31.9,21.8-52.3c0-28-33-76.6-55.1-109.1
	c-4.8-7-8.9-13.4-12.9-19.3c-0.6-0.8-1.4-1.7-2.2-2.2c-3.4-2.2-7.8-1.1-10.1,2.2c-3.6,5.9-7.8,12-12.9,19.3
	C135,123.9,102,172.8,102,200.8c0,20.4,8.4,38.9,21.8,52.3C137.2,266.2,155.7,274.6,176.1,274.6z M169.1,99.3
	c2.5-3.6,4.8-7.3,7-10.3c2.2,3.1,4.5,6.7,7,10.3c21,31.3,52.6,77.7,52.6,101.2c0,16.5-6.7,31.3-17.3,42.2
	c-10.9,10.9-25.7,17.3-42.2,17.3s-31.3-6.7-42.2-17.3c-10.9-10.9-17.3-25.7-17.3-42.2C116.5,177,148.1,130.3,169.1,99.3z"/>
<path class="st3" d="M201,244.4c7.5-4.2,13.7-10.3,17.9-17.3c4.5-7,7-15.4,7.3-24c0.3-3.9-2.8-7.3-6.7-7.5c-3.9-0.3-7.3,2.8-7.5,6.7
	c-0.3,6.2-2.2,12-5.3,17.1c-3.1,5-7.5,9.5-12.9,12.3c-3.4,2-4.8,6.4-2.8,9.8C193.1,245.3,197.6,246.4,201,244.4z"/>
</svg>
