<?xml version="1.0" encoding="utf-8"?>
<!-- Generator: Adobe Illustrator 24.1.1, SVG Export Plug-In . SVG Version: 6.00 Build 0)  -->
<svg version="1.1" id="Calque_1" xmlns="http://www.w3.org/2000/svg" xmlns:xlink="http://www.w3.org/1999/xlink" x="0px" y="0px"
	 viewBox="0 0 354 344" style="enable-background:new 0 0 354 344;" xml:space="preserve">
<style type="text/css">
	.st0{fill:none;}
	.st1{fill:#01A388;}
	.st2{fill:url(#SVGID_1_);}
	.st3{fill:url(#SVGID_2_);}
	.st4{fill:url(#_x34_0_xA0__x25__10_ppp_3);stroke:#254E75;stroke-width:2.0852;stroke-miterlimit:10;}
	.st5{fill:#254E75;}
</style>
<pattern  x="102" y="97" width="28.8" height="28.8" patternUnits="userSpaceOnUse" id="_x34_0_xA0__x25__10_ppp_3" viewBox="2.9 -31.7 28.8 28.8" style="overflow:visible;">
	<g>
		<rect x="2.9" y="-31.7" class="st0" width="28.8" height="28.8"/>
		<g>
			<path class="st1" d="M31.7,0c1.6,0,2.9-1.3,2.9-2.9c0-1.6-1.3-2.9-2.9-2.9c-1.6,0-2.9,1.3-2.9,2.9C28.8-1.3,30.1,0,31.7,0z"/>
			<path class="st1" d="M17.3,0c1.6,0,2.9-1.3,2.9-2.9c0-1.6-1.3-2.9-2.9-2.9c-1.6,0-2.9,1.3-2.9,2.9C14.4-1.3,15.7,0,17.3,0z"/>
			<path class="st1" d="M31.7-14.4c1.6,0,2.9-1.3,2.9-2.9s-1.3-2.9-2.9-2.9c-1.6,0-2.9,1.3-2.9,2.9S30.1-14.4,31.7-14.4z"/>
			<path class="st1" d="M17.3-14.4c1.6,0,2.9-1.3,2.9-2.9s-1.3-2.9-2.9-2.9c-1.6,0-2.9,1.3-2.9,2.9S15.7-14.4,17.3-14.4z"/>
			<path class="st1" d="M10.1-7.2c1.6,0,2.9-1.3,2.9-2.9c0-1.6-1.3-2.9-2.9-2.9c-1.6,0-2.9,1.3-2.9,2.9C7.2-8.5,8.5-7.2,10.1-7.2z"
				/>
			<path class="st1" d="M24.5-7.2c1.6,0,2.9-1.3,2.9-2.9c0-1.6-1.3-2.9-2.9-2.9c-1.6,0-2.9,1.3-2.9,2.9C21.6-8.5,22.9-7.2,24.5-7.2z
				"/>
			<path class="st1" d="M10.1-21.6c1.6,0,2.9-1.3,2.9-2.9c0-1.6-1.3-2.9-2.9-2.9c-1.6,0-2.9,1.3-2.9,2.9
				C7.2-22.9,8.5-21.6,10.1-21.6z"/>
			<path class="st1" d="M24.5-21.6c1.6,0,2.9-1.3,2.9-2.9c0-1.6-1.3-2.9-2.9-2.9c-1.6,0-2.9,1.3-2.9,2.9
				C21.6-22.9,22.9-21.6,24.5-21.6z"/>
		</g>
		<g>
			<path class="st1" d="M2.9,0c1.6,0,2.9-1.3,2.9-2.9c0-1.6-1.3-2.9-2.9-2.9C1.3-5.8,0-4.5,0-2.9C0-1.3,1.3,0,2.9,0z"/>
			<path class="st1" d="M2.9-14.4c1.6,0,2.9-1.3,2.9-2.9s-1.3-2.9-2.9-2.9c-1.6,0-2.9,1.3-2.9,2.9S1.3-14.4,2.9-14.4z"/>
		</g>
		<g>
			<path class="st1" d="M31.7-28.8c1.6,0,2.9-1.3,2.9-2.9c0-1.6-1.3-2.9-2.9-2.9c-1.6,0-2.9,1.3-2.9,2.9
				C28.8-30.1,30.1-28.8,31.7-28.8z"/>
			<path class="st1" d="M17.3-28.8c1.6,0,2.9-1.3,2.9-2.9c0-1.6-1.3-2.9-2.9-2.9c-1.6,0-2.9,1.3-2.9,2.9
				C14.4-30.1,15.7-28.8,17.3-28.8z"/>
		</g>
		<g>
			<path class="st1" d="M2.9-28.8c1.6,0,2.9-1.3,2.9-2.9c0-1.6-1.3-2.9-2.9-2.9c-1.6,0-2.9,1.3-2.9,2.9C0-30.1,1.3-28.8,2.9-28.8z"
				/>
		</g>
	</g>
</pattern>
<pattern  id="SVGID_1_" xlink:href="#_x34_0_xA0__x25__10_ppp_3" patternTransform="matrix(1 0 0 1 26 10.7967)">
</pattern>
<path class="st2" d="M193.4,253.2h-5.6h-44.5h-3.9h-2.3h-8c0.3,19.8,16.5,35.9,36.4,35.9c19.9,0,36.1-16.1,36.4-35.9h-7.1H193.4z"/>
<pattern  id="SVGID_2_" xlink:href="#_x34_0_xA0__x25__10_ppp_3" patternTransform="matrix(1 0 0 1 26 10.7967)">
</pattern>
<polygon class="st3" points="143.3,95.7 143.3,75.6 162.2,62.8 179.3,66 185.5,83.2 183.9,100.9 154.2,99.3 "/>
<path class="st4" d="M224.1,257h51.8c3.3,0,6.4-2.2,7.1-5.3c0.7-3.1-0.8-6.2-3.8-7.5c-0.7-0.4-6-4.1-11.4-15
	c-9.8-20.1-11.9-48.3-11.9-68.5c0-0.1,0-0.2,0-0.3c-0.1-26.7-16.7-47.5-40.3-60c0,0-26.3-13.4-55.8,0
	c-23.7,10.3-40.3,33.5-40.3,60.2c0,20.2-2.1,48.4-11.9,68.5c-5.3,10.9-10.7,14.5-11.4,15c-3,1.3-4.5,4.4-3.8,7.5
	c0.7,3.2,3.7,5.3,7.1,5.3h51.8h14.1H210H224.1z"/>
<path class="st5" d="M201.9,257h51.8c3.3,0,6.4-2.3,7.1-5.5c0.7-3.2-0.8-6.4-3.8-7.8c-0.7-0.5-6-4.2-11.4-15.5
	c-9.8-20.8-11.9-50-11.9-70.9c0-0.1,0-0.2,0-0.3c-0.1-27.6-16.6-51.4-40.3-62V78.7c0-14.8-12-26.9-26.8-26.9h-2.2
	c-14.8,0-26.8,12-26.8,26.9V95c-23.7,10.7-40.3,34.6-40.3,62.3c0,20.9-2.1,50.1-11.9,70.9c-5.3,11.3-10.7,15-11.4,15.5
	c-3,1.4-4.5,4.6-3.8,7.8c0.7,3.3,3.7,5.5,7.1,5.5h51.8 M129.2,257c0.3,19.8,16.5,35.9,36.4,35.9c19.9,0,36.1-16.1,36.4-35.9
	 M151.8,78.7c0-7,5.7-12.7,12.7-12.7h2.2c7,0,12.7,5.7,12.7,12.7v11.7c-4.5-0.9-9.1-1.4-13.8-1.4c-4.7,0-9.3,0.5-13.8,1.4V78.7z
	 M187.8,257c-0.3,12-10.1,21.7-22.2,21.7c-12.1,0-21.9-9.7-22.2-21.7 M143.3,257h44.5"/>
</svg>
