<?xml version="1.0" encoding="utf-8"?>
<!-- Generator: Adobe Illustrator 24.1.1, SVG Export Plug-In . SVG Version: 6.00 Build 0)  -->
<svg version="1.1" id="Calque_1" xmlns="http://www.w3.org/2000/svg" xmlns:xlink="http://www.w3.org/1999/xlink" x="0px" y="0px"
	 viewBox="0 0 354 344" style="enable-background:new 0 0 354 344;" xml:space="preserve">
<style type="text/css">
	.st0{fill:none;}
	.st1{fill:#01A388;}
	.st2{fill:url(#SVGID_1_);stroke:#254E75;stroke-width:1.8829;stroke-miterlimit:10;}
	.st3{fill:url(#SVGID_2_);stroke:#254E75;stroke-width:1.8829;stroke-miterlimit:10;}
	.st4{fill:#254C73;}
</style>
<pattern  y="344" width="28.8" height="28.8" patternUnits="userSpaceOnUse" id="_x34_0_xA0__x25__10_ppp_2" viewBox="2.9 -31.7 28.8 28.8" style="overflow:visible;">
	<g>
		<rect x="2.9" y="-31.7" class="st0" width="28.8" height="28.8"/>
		<g>
			<path class="st1" d="M31.7,0c1.6,0,2.9-1.3,2.9-2.9c0-1.6-1.3-2.9-2.9-2.9c-1.6,0-2.9,1.3-2.9,2.9C28.8-1.3,30.1,0,31.7,0z"/>
			<path class="st1" d="M17.3,0c1.6,0,2.9-1.3,2.9-2.9c0-1.6-1.3-2.9-2.9-2.9c-1.6,0-2.9,1.3-2.9,2.9C14.4-1.3,15.7,0,17.3,0z"/>
			<path class="st1" d="M31.7-14.4c1.6,0,2.9-1.3,2.9-2.9s-1.3-2.9-2.9-2.9c-1.6,0-2.9,1.3-2.9,2.9S30.1-14.4,31.7-14.4z"/>
			<path class="st1" d="M17.3-14.4c1.6,0,2.9-1.3,2.9-2.9s-1.3-2.9-2.9-2.9c-1.6,0-2.9,1.3-2.9,2.9S15.7-14.4,17.3-14.4z"/>
			<path class="st1" d="M10.1-7.2c1.6,0,2.9-1.3,2.9-2.9c0-1.6-1.3-2.9-2.9-2.9c-1.6,0-2.9,1.3-2.9,2.9C7.2-8.5,8.5-7.2,10.1-7.2z"
				/>
			<path class="st1" d="M24.5-7.2c1.6,0,2.9-1.3,2.9-2.9c0-1.6-1.3-2.9-2.9-2.9c-1.6,0-2.9,1.3-2.9,2.9C21.6-8.5,22.9-7.2,24.5-7.2z
				"/>
			<path class="st1" d="M10.1-21.6c1.6,0,2.9-1.3,2.9-2.9c0-1.6-1.3-2.9-2.9-2.9c-1.6,0-2.9,1.3-2.9,2.9
				C7.2-22.9,8.5-21.6,10.1-21.6z"/>
			<path class="st1" d="M24.5-21.6c1.6,0,2.9-1.3,2.9-2.9c0-1.6-1.3-2.9-2.9-2.9c-1.6,0-2.9,1.3-2.9,2.9
				C21.6-22.9,22.9-21.6,24.5-21.6z"/>
		</g>
		<g>
			<path class="st1" d="M2.9,0c1.6,0,2.9-1.3,2.9-2.9c0-1.6-1.3-2.9-2.9-2.9C1.3-5.8,0-4.5,0-2.9C0-1.3,1.3,0,2.9,0z"/>
			<path class="st1" d="M2.9-14.4c1.6,0,2.9-1.3,2.9-2.9s-1.3-2.9-2.9-2.9c-1.6,0-2.9,1.3-2.9,2.9S1.3-14.4,2.9-14.4z"/>
		</g>
		<g>
			<path class="st1" d="M31.7-28.8c1.6,0,2.9-1.3,2.9-2.9c0-1.6-1.3-2.9-2.9-2.9c-1.6,0-2.9,1.3-2.9,2.9
				C28.8-30.1,30.1-28.8,31.7-28.8z"/>
			<path class="st1" d="M17.3-28.8c1.6,0,2.9-1.3,2.9-2.9c0-1.6-1.3-2.9-2.9-2.9c-1.6,0-2.9,1.3-2.9,2.9
				C14.4-30.1,15.7-28.8,17.3-28.8z"/>
		</g>
		<g>
			<path class="st1" d="M2.9-28.8c1.6,0,2.9-1.3,2.9-2.9c0-1.6-1.3-2.9-2.9-2.9c-1.6,0-2.9,1.3-2.9,2.9C0-30.1,1.3-28.8,2.9-28.8z"
				/>
		</g>
	</g>
</pattern>
<g>
	<pattern  id="SVGID_1_" xlink:href="#_x34_0_xA0__x25__10_ppp_2" patternTransform="matrix(1 0 0 1 11.8028 -6.7967)">
	</pattern>
	<path class="st2" d="M232.1,181.1c-4.2-2-7.7-2.5-11.7,0.3c-2.1,1.5-4.7,2.5-7.2,3.3c-22.7,7.9-44.6,6.1-65.9-5
		c-1-0.5-2.7-0.5-3.8-0.1c-2.6,0.9-5.2,2.1-7.7,3.4c-23.2,11.7-41,29.1-53.7,51.8c-7.7,13.8-12.9,28.5-15.1,44.2
		c-1.5,10.7,2.8,16,13.5,17.1c2.2,0.2,4.4,0.2,6.6,0.2c32.9,0,65.9,0,98.8,0c20.4,0,40.8,0,61.2,0c14.1,0,28.2,0.2,42.3-0.1
		c12.3-0.3,17.4-6.2,15.2-18.2C296.4,233.8,272.8,201,232.1,181.1z"/>
	<pattern  id="SVGID_2_" xlink:href="#_x34_0_xA0__x25__10_ppp_2" patternTransform="matrix(1 0 0 1 11.8028 -6.7967)">
	</pattern>
	<path class="st3" d="M185.7,46.3c-34.6-0.1-62.9,28.2-62.9,62.8c0.1,35,27.9,62.6,63.9,62.4c34.1-0.2,61.5-28.2,61.4-62.5
		C248.1,74.5,220.2,46.4,185.7,46.3z"/>
</g>
<g>
	<path class="st4" d="M165.9,297.1c-32.9,0-65.9,0-98.8,0c-2.2,0-4.4,0-6.6-0.2c-10.7-1.2-15.1-6.5-13.5-17.1
		c2.2-15.7,7.4-30.4,15.1-44.2c12.7-22.6,30.4-40.1,53.7-51.8c2.5-1.3,5.1-2.5,7.7-3.4c1.1-0.4,2.8-0.5,3.8,0.1
		c21.3,11.1,43.2,12.9,65.9,5c2.5-0.9,5.1-1.8,7.2-3.3c4-2.8,7.5-2.3,11.7-0.3c40.8,19.9,64.3,52.7,72.4,96.9
		c2.2,12-2.9,17.9-15.2,18.2c-14.1,0.3-28.2,0.1-42.3,0.1C206.7,297.1,186.3,297.1,165.9,297.1z"/>
	<path class="st4" d="M228.2,109.7c0,34.3-27.3,62.3-61.4,62.5c-36,0.2-63.8-27.4-63.9-62.4c-0.1-34.6,28.3-62.9,62.9-62.8
		C200.3,47.2,228.2,75.2,228.2,109.7z"/>
</g>
</svg>
