<?xml version="1.0" encoding="utf-8"?>
<!-- Generator: Adobe Illustrator 24.1.1, SVG Export Plug-In . SVG Version: 6.00 Build 0)  -->
<svg version="1.1" id="Calque_1" xmlns="http://www.w3.org/2000/svg" xmlns:xlink="http://www.w3.org/1999/xlink" x="0px" y="0px"
	 viewBox="0 0 354 344" style="enable-background:new 0 0 354 344;" xml:space="preserve">
<style type="text/css">
	.st0{fill:none;}
	.st1{fill:#01A388;}
	.st2{fill:url(#SVGID_1_);}
	.st3{fill:url(#SVGID_2_);}
	.st4{fill:url(#SVGID_3_);}
	.st5{fill:url(#SVGID_4_);}
	.st6{fill:url(#SVGID_5_);}
	.st7{fill:#254E75;}
</style>
<pattern  y="344" width="28.8" height="28.8" patternUnits="userSpaceOnUse" id="_x34_0_xA0__x25__10_ppp_2" viewBox="2.9 -31.7 28.8 28.8" style="overflow:visible;">
	<g>
		<rect x="2.9" y="-31.7" class="st0" width="28.8" height="28.8"/>
		<g>
			<path class="st1" d="M31.7,0c1.6,0,2.9-1.3,2.9-2.9c0-1.6-1.3-2.9-2.9-2.9c-1.6,0-2.9,1.3-2.9,2.9C28.8-1.3,30.1,0,31.7,0z"/>
			<path class="st1" d="M17.3,0c1.6,0,2.9-1.3,2.9-2.9c0-1.6-1.3-2.9-2.9-2.9c-1.6,0-2.9,1.3-2.9,2.9C14.4-1.3,15.7,0,17.3,0z"/>
			<path class="st1" d="M31.7-14.4c1.6,0,2.9-1.3,2.9-2.9s-1.3-2.9-2.9-2.9c-1.6,0-2.9,1.3-2.9,2.9S30.1-14.4,31.7-14.4z"/>
			<path class="st1" d="M17.3-14.4c1.6,0,2.9-1.3,2.9-2.9s-1.3-2.9-2.9-2.9c-1.6,0-2.9,1.3-2.9,2.9S15.7-14.4,17.3-14.4z"/>
			<path class="st1" d="M10.1-7.2c1.6,0,2.9-1.3,2.9-2.9c0-1.6-1.3-2.9-2.9-2.9c-1.6,0-2.9,1.3-2.9,2.9C7.2-8.5,8.5-7.2,10.1-7.2z"
				/>
			<path class="st1" d="M24.5-7.2c1.6,0,2.9-1.3,2.9-2.9c0-1.6-1.3-2.9-2.9-2.9c-1.6,0-2.9,1.3-2.9,2.9C21.6-8.5,22.9-7.2,24.5-7.2z
				"/>
			<path class="st1" d="M10.1-21.6c1.6,0,2.9-1.3,2.9-2.9c0-1.6-1.3-2.9-2.9-2.9c-1.6,0-2.9,1.3-2.9,2.9
				C7.2-22.9,8.5-21.6,10.1-21.6z"/>
			<path class="st1" d="M24.5-21.6c1.6,0,2.9-1.3,2.9-2.9c0-1.6-1.3-2.9-2.9-2.9c-1.6,0-2.9,1.3-2.9,2.9
				C21.6-22.9,22.9-21.6,24.5-21.6z"/>
		</g>
		<g>
			<path class="st1" d="M2.9,0c1.6,0,2.9-1.3,2.9-2.9c0-1.6-1.3-2.9-2.9-2.9C1.3-5.8,0-4.5,0-2.9C0-1.3,1.3,0,2.9,0z"/>
			<path class="st1" d="M2.9-14.4c1.6,0,2.9-1.3,2.9-2.9s-1.3-2.9-2.9-2.9c-1.6,0-2.9,1.3-2.9,2.9S1.3-14.4,2.9-14.4z"/>
		</g>
		<g>
			<path class="st1" d="M31.7-28.8c1.6,0,2.9-1.3,2.9-2.9c0-1.6-1.3-2.9-2.9-2.9c-1.6,0-2.9,1.3-2.9,2.9
				C28.8-30.1,30.1-28.8,31.7-28.8z"/>
			<path class="st1" d="M17.3-28.8c1.6,0,2.9-1.3,2.9-2.9c0-1.6-1.3-2.9-2.9-2.9c-1.6,0-2.9,1.3-2.9,2.9
				C14.4-30.1,15.7-28.8,17.3-28.8z"/>
		</g>
		<g>
			<path class="st1" d="M2.9-28.8c1.6,0,2.9-1.3,2.9-2.9c0-1.6-1.3-2.9-2.9-2.9c-1.6,0-2.9,1.3-2.9,2.9C0-30.1,1.3-28.8,2.9-28.8z"
				/>
		</g>
	</g>
</pattern>
<g>
	<pattern  id="SVGID_1_" xlink:href="#_x34_0_xA0__x25__10_ppp_2" patternTransform="matrix(1 0 0 1 -16.4014 -19.7885)">
	</pattern>
	<path class="st2" d="M230.6,53.2c-24.9-3.3-48.6,13.4-49,34.7C207.6,90.4,231.3,73.5,230.6,53.2z"/>
	<pattern  id="SVGID_2_" xlink:href="#_x34_0_xA0__x25__10_ppp_2" patternTransform="matrix(1 0 0 1 -16.4014 -19.7885)">
	</pattern>
	<path class="st3" d="M105.8,211.5c46.9,0,93.6,0,140.2,0c0-6.7,0-13.3,0-19.8c-46.8,0-93.5,0-140.2,0
		C105.8,198.3,105.8,204.8,105.8,211.5z"/>
	<pattern  id="SVGID_3_" xlink:href="#_x34_0_xA0__x25__10_ppp_2" patternTransform="matrix(1 0 0 1 -16.4014 -19.7885)">
	</pattern>
	<path class="st4" d="M134.9,289.9c4.2,0,8.5,0,12.7,0c1.8,0,47.9-0.1,57.6,0c3.9,0,7.8,0,11.8,0c4.4-22.7,8.7-45.3,13.1-68.1
		c-36.1,0-72,0-108.2,0C126.2,244.4,130.5,267,134.9,289.9z"/>
	<pattern  id="SVGID_4_" xlink:href="#_x34_0_xA0__x25__10_ppp_2" patternTransform="matrix(1 0 0 1 -16.4014 -19.7885)">
	</pattern>
	<path class="st5" d="M245.7,131.6c-17.6-1.6-33.6,2.1-46.8,14.3c-10.3,9.5-16.2,21.3-17.6,35.4
		C213.9,185.5,246.4,160.3,245.7,131.6z"/>
	<pattern  id="SVGID_5_" xlink:href="#_x34_0_xA0__x25__10_ppp_2" patternTransform="matrix(1 0 0 1 -16.4014 -19.7885)">
	</pattern>
	<path class="st6" d="M170.9,124.3c-0.7-18.9-15.7-35.7-34.5-37.5c-10-1-20.2-0.2-30.7-0.2c0,2.8,0,6.1,0,9.3
		c0.1,22.7,17.8,40.4,40.4,40.5c7.5,0,15,0,22.6,0c0.7,0,1.4-0.1,2.3-0.1C170.9,132.1,171,128.2,170.9,124.3z"/>
	<path class="st7" d="M250.2,181.5c-7.3,0-14.6,0-21.8,0c-0.6,0-1.2-0.1-2.1-0.2c1.1-0.7,1.7-1.2,2.4-1.7
		c17.6-13,26.9-30.4,27.6-52.3c0.1-4-1.8-5.9-5.7-5.9c-5.2,0-10.4-0.2-15.6,0c-22,0.8-39.4,10.3-52.3,28.1c-0.4,0.6-0.8,1.1-1.4,1.9
		c0-17.9,0-35.4,0-53.5c5.5,0,10.9,0.5,16.2-0.1c24-2.5,43.3-23.8,43.9-47.9c0.1-3.1-0.8-5.3-3.5-6.8c-7.2,0-14.4,0-21.6,0
		c-0.4,0.1-0.8,0.4-1.2,0.4c-23.7,3.4-40.6,20.5-43.7,44.3c-0.3,2.6-0.4,5.2-0.6,8.1c-0.7-0.8-1.1-1.2-1.4-1.7
		c-8.7-10.2-19.6-16.6-33-17.6c-11.9-0.8-23.9-0.4-35.9-0.4c-2.9,0-4.8,2.2-4.8,5.3c-0.1,4.8,0,9.5,0,14.3
		c0.1,28.3,22.2,50.4,50.5,50.6c7.4,0,14.7,0,22.1,0c0.9,0,1.8,0,2.6,0c0,11.9,0,23.4,0,35.1c-1.1,0-2.1,0-3.1,0c-22,0-44,0-66,0
		c-4.3,0-6.1,1.8-6.1,6.1c0,9.3,0,18.6,0,27.9c0,4.4,1.8,6.2,6.3,6.2c3.2,0,6.3,0,9.6,0c2.4,12.6,4.8,24.9,7.2,37.3
		c2.3,12.1,4.7,24.3,7,36.4c0.6,2.8,2.2,4.5,4.9,4.5c6.4,0.1,50.9,0.1,69.2,0c6.8,0,13.6,0,20.4,0c3.6,0,5.2-1.4,5.9-4.8
		c2.9-14.8,5.7-29.5,8.5-44.3c1.9-9.7,3.7-19.3,5.6-28.9c0.3-0.1,0.5-0.2,0.6-0.2c3.1,0,6.2,0,9.3-0.1c4.2,0,6-1.8,6-5.9
		c0-9.4,0-18.7,0-28.1C256.3,183.3,254.4,181.5,250.2,181.5z M230.6,53.2c0.7,20.3-23,37.2-49,34.7C182,66.7,205.7,49.9,230.6,53.2z
		 M198.9,145.9c13.3-12.3,29.3-15.9,46.8-14.3c0.7,28.7-31.8,53.9-64.5,49.7C182.7,167.2,188.6,155.4,198.9,145.9z M168.7,136.3
		c-7.5,0-15,0-22.6,0c-22.6-0.1-40.3-17.8-40.4-40.5c0-3.2,0-6.4,0-9.3c10.5,0,20.7-0.8,30.7,0.2c18.8,1.8,33.8,18.6,34.5,37.5
		c0.1,3.9,0,7.8,0,11.9C170.1,136.2,169.4,136.3,168.7,136.3z M217,289.9c-4,0-7.9,0-11.8,0c-9.7-0.1-55.8,0-57.6,0
		c-4.2,0-8.5,0-12.7,0c-4.4-22.9-8.7-45.5-13.1-68.1c36.3,0,72.2,0,108.2,0C225.7,244.6,221.4,267.2,217,289.9z M246,211.5
		c-46.6,0-93.3,0-140.2,0c0-6.7,0-13.2,0-19.8c46.8,0,93.4,0,140.2,0C246,198.2,246,204.7,246,211.5z"/>
</g>
</svg>
