<?xml version="1.0" encoding="utf-8"?>
<!-- Generator: Adobe Illustrator 24.1.1, SVG Export Plug-In . SVG Version: 6.00 Build 0)  -->
<svg version="1.1" id="Calque_1" xmlns="http://www.w3.org/2000/svg" xmlns:xlink="http://www.w3.org/1999/xlink" x="0px" y="0px"
	 viewBox="0 0 354 344" style="enable-background:new 0 0 354 344;" xml:space="preserve">
<style type="text/css">
	.st0{fill:none;}
	.st1{fill:#01A388;}
	.st2{fill:url(#Icon_awesome-cat_2_);stroke:#254E75;stroke-width:2.6908;stroke-miterlimit:10;}
	.st3{fill:#254C73;}
	.st4{fill:#254E75;}
</style>
<pattern  y="344" width="28.8" height="28.8" patternUnits="userSpaceOnUse" id="_x34_0_xA0__x25__10_ppp_2" viewBox="2.9 -31.7 28.8 28.8" style="overflow:visible;">
	<g>
		<rect x="2.9" y="-31.7" class="st0" width="28.8" height="28.8"/>
		<g>
			<path class="st1" d="M31.7,0c1.6,0,2.9-1.3,2.9-2.9c0-1.6-1.3-2.9-2.9-2.9c-1.6,0-2.9,1.3-2.9,2.9C28.8-1.3,30.1,0,31.7,0z"/>
			<path class="st1" d="M17.3,0c1.6,0,2.9-1.3,2.9-2.9c0-1.6-1.3-2.9-2.9-2.9c-1.6,0-2.9,1.3-2.9,2.9C14.4-1.3,15.7,0,17.3,0z"/>
			<path class="st1" d="M31.7-14.4c1.6,0,2.9-1.3,2.9-2.9s-1.3-2.9-2.9-2.9c-1.6,0-2.9,1.3-2.9,2.9S30.1-14.4,31.7-14.4z"/>
			<path class="st1" d="M17.3-14.4c1.6,0,2.9-1.3,2.9-2.9s-1.3-2.9-2.9-2.9c-1.6,0-2.9,1.3-2.9,2.9S15.7-14.4,17.3-14.4z"/>
			<path class="st1" d="M10.1-7.2c1.6,0,2.9-1.3,2.9-2.9c0-1.6-1.3-2.9-2.9-2.9c-1.6,0-2.9,1.3-2.9,2.9C7.2-8.5,8.5-7.2,10.1-7.2z"
				/>
			<path class="st1" d="M24.5-7.2c1.6,0,2.9-1.3,2.9-2.9c0-1.6-1.3-2.9-2.9-2.9c-1.6,0-2.9,1.3-2.9,2.9C21.6-8.5,22.9-7.2,24.5-7.2z
				"/>
			<path class="st1" d="M10.1-21.6c1.6,0,2.9-1.3,2.9-2.9c0-1.6-1.3-2.9-2.9-2.9c-1.6,0-2.9,1.3-2.9,2.9
				C7.2-22.9,8.5-21.6,10.1-21.6z"/>
			<path class="st1" d="M24.5-21.6c1.6,0,2.9-1.3,2.9-2.9c0-1.6-1.3-2.9-2.9-2.9c-1.6,0-2.9,1.3-2.9,2.9
				C21.6-22.9,22.9-21.6,24.5-21.6z"/>
		</g>
		<g>
			<path class="st1" d="M2.9,0c1.6,0,2.9-1.3,2.9-2.9c0-1.6-1.3-2.9-2.9-2.9C1.3-5.8,0-4.5,0-2.9C0-1.3,1.3,0,2.9,0z"/>
			<path class="st1" d="M2.9-14.4c1.6,0,2.9-1.3,2.9-2.9s-1.3-2.9-2.9-2.9c-1.6,0-2.9,1.3-2.9,2.9S1.3-14.4,2.9-14.4z"/>
		</g>
		<g>
			<path class="st1" d="M31.7-28.8c1.6,0,2.9-1.3,2.9-2.9c0-1.6-1.3-2.9-2.9-2.9c-1.6,0-2.9,1.3-2.9,2.9
				C28.8-30.1,30.1-28.8,31.7-28.8z"/>
			<path class="st1" d="M17.3-28.8c1.6,0,2.9-1.3,2.9-2.9c0-1.6-1.3-2.9-2.9-2.9c-1.6,0-2.9,1.3-2.9,2.9
				C14.4-30.1,15.7-28.8,17.3-28.8z"/>
		</g>
		<g>
			<path class="st1" d="M2.9-28.8c1.6,0,2.9-1.3,2.9-2.9c0-1.6-1.3-2.9-2.9-2.9c-1.6,0-2.9,1.3-2.9,2.9C0-30.1,1.3-28.8,2.9-28.8z"
				/>
		</g>
	</g>
</pattern>
<pattern  id="Icon_awesome-cat_2_" xlink:href="#_x34_0_xA0__x25__10_ppp_2" patternTransform="matrix(1 0 0 1 11.8028 -6.7967)">
</pattern>
<path id="Icon_awesome-cat" class="st2" d="M177.7,141c-22.5-0.3-43.6,10.9-56,29.6V141c0-18.3-14.8-33.1-33.1-33.1
	c-6.1,0-11,4.9-11,11c0,6.1,4.9,11,11,11c6.1,0,11,4.9,11,11v88.2c0,12.2,9.9,22,22.1,22.1h60.6c3,0,5.5-2.5,5.5-5.5l0,0v-5.5
	c0-6.1-4.9-11-11-11h-11l44.1-33.1v49.6c0,3,2.5,5.5,5.5,5.5h0h11c3,0,5.5-2.5,5.5-5.5v0v-71c-3.6,1-7.3,1.5-11,1.6
	C200,176.2,181.9,161.5,177.7,141z M232,107.9h-22l-22.1-22v46.3c0,18.3,14.8,33.1,33.1,33.1s33.1-14.8,33.1-33.1V85.9L232,107.9z
	 M207.2,135.5c-3,0-5.5-2.5-5.5-5.5s2.5-5.5,5.5-5.5c3,0,5.5,2.5,5.5,5.5C212.6,133,210.2,135.5,207.2,135.5L207.2,135.5z
	 M234.7,135.5c-3,0-5.5-2.5-5.5-5.5s2.5-5.5,5.5-5.5c3,0,5.5,2.5,5.5,5.5C240.2,133,237.8,135.5,234.7,135.5L234.7,135.5z"/>
<path id="Icon_awesome-cat_1_" class="st3" d="M167,141c-22.5-0.3-43.6,10.9-56,29.6V141c0-18.3-14.8-33.1-33.1-33.1
	c-6.1,0-11,4.9-11,11c0,6.1,4.9,11,11,11c6.1,0,11,4.9,11,11v88.2c0,12.2,9.9,22,22.1,22.1h60.6c3,0,5.5-2.5,5.5-5.5l0,0v-5.5
	c0-6.1-4.9-11-11-11h-11l44.1-33.1v49.6c0,3,2.5,5.5,5.5,5.5h0h11c3,0,5.5-2.5,5.5-5.5v0v-71c-3.6,1-7.3,1.5-11,1.6
	C189.2,176.2,171.2,161.5,167,141z M221.2,107.9h-22l-22.1-22v46.3c0,18.3,14.8,33.1,33.1,33.1s33.1-14.8,33.1-33.1V85.9
	L221.2,107.9z M196.4,135.5c-3,0-5.5-2.5-5.5-5.5c0-3,2.5-5.5,5.5-5.5c3,0,5.5,2.5,5.5,5.5C201.9,133,199.4,135.5,196.4,135.5
	L196.4,135.5z M224,135.5c-3,0-5.5-2.5-5.5-5.5s2.5-5.5,5.5-5.5c3,0,5.5,2.5,5.5,5.5C229.5,133,227,135.5,224,135.5L224,135.5z"/>
<path class="st4" d="M279.3,48.7c-1.9,2.1-3.9,4.2-5.8,6.3c-5.3,5.7-10.6,11.4-15.9,17.1c-7.8,8.4-15.6,16.8-23.4,25.1
	c-9.5,10.2-19,20.4-28.5,30.7c-10.5,11.2-20.9,22.5-31.4,33.7c-10.6,11.3-21.1,22.7-31.7,34c-9.8,10.5-19.6,21.1-29.4,31.6
	c-8.3,8.9-16.6,17.9-25,26.8c-6,6.4-12,12.9-17.9,19.3c-2.8,3-5.7,6-8.5,9.1c-0.1,0.1-0.2,0.3-0.4,0.4c-2.9,3.1-3.3,8.4,0,11.4
	c3.1,2.9,8.3,3.3,11.4,0c1.9-2.1,3.9-4.2,5.8-6.3c5.3-5.7,10.6-11.4,15.9-17.1c7.8-8.4,15.6-16.8,23.4-25.1
	c9.5-10.2,19-20.4,28.5-30.7c10.5-11.2,20.9-22.5,31.4-33.7c10.6-11.3,21.1-22.7,31.7-34c9.8-10.5,19.6-21.1,29.4-31.6
	c8.3-8.9,16.6-17.9,25-26.8c6-6.4,12-12.9,17.9-19.3c2.8-3,5.7-6,8.5-9.1c0.1-0.1,0.2-0.3,0.4-0.4c2.9-3.1,3.3-8.4,0-11.4
	C287.6,45.9,282.3,45.4,279.3,48.7L279.3,48.7z"/>
</svg>
