<?xml version="1.0" encoding="utf-8"?>
<!-- Generator: Adobe Illustrator 24.1.1, SVG Export Plug-In . SVG Version: 6.00 Build 0)  -->
<svg version="1.1" id="Calque_1" xmlns="http://www.w3.org/2000/svg" xmlns:xlink="http://www.w3.org/1999/xlink" x="0px" y="0px"
	 viewBox="0 0 354 344" style="enable-background:new 0 0 354 344;" xml:space="preserve">
<style type="text/css">
	.st0{fill:none;}
	.st1{fill:#01A388;}
	.st2{fill:url(#SVGID_1_);}
	.st3{fill:url(#SVGID_2_);}
	.st4{fill:url(#SVGID_3_);}
	.st5{fill:url(#SVGID_4_);}
	.st6{fill:#254E75;}
</style>
<pattern  y="344" width="28.8" height="28.8" patternUnits="userSpaceOnUse" id="_x34_0_xA0__x25__10_ppp_2" viewBox="2.9 -31.7 28.8 28.8" style="overflow:visible;">
	<g>
		<rect x="2.9" y="-31.7" class="st0" width="28.8" height="28.8"/>
		<g>
			<path class="st1" d="M31.7,0c1.6,0,2.9-1.3,2.9-2.9c0-1.6-1.3-2.9-2.9-2.9c-1.6,0-2.9,1.3-2.9,2.9C28.8-1.3,30.1,0,31.7,0z"/>
			<path class="st1" d="M17.3,0c1.6,0,2.9-1.3,2.9-2.9c0-1.6-1.3-2.9-2.9-2.9c-1.6,0-2.9,1.3-2.9,2.9C14.4-1.3,15.7,0,17.3,0z"/>
			<path class="st1" d="M31.7-14.4c1.6,0,2.9-1.3,2.9-2.9s-1.3-2.9-2.9-2.9c-1.6,0-2.9,1.3-2.9,2.9S30.1-14.4,31.7-14.4z"/>
			<path class="st1" d="M17.3-14.4c1.6,0,2.9-1.3,2.9-2.9s-1.3-2.9-2.9-2.9c-1.6,0-2.9,1.3-2.9,2.9S15.7-14.4,17.3-14.4z"/>
			<path class="st1" d="M10.1-7.2c1.6,0,2.9-1.3,2.9-2.9c0-1.6-1.3-2.9-2.9-2.9c-1.6,0-2.9,1.3-2.9,2.9C7.2-8.5,8.5-7.2,10.1-7.2z"
				/>
			<path class="st1" d="M24.5-7.2c1.6,0,2.9-1.3,2.9-2.9c0-1.6-1.3-2.9-2.9-2.9c-1.6,0-2.9,1.3-2.9,2.9C21.6-8.5,22.9-7.2,24.5-7.2z
				"/>
			<path class="st1" d="M10.1-21.6c1.6,0,2.9-1.3,2.9-2.9c0-1.6-1.3-2.9-2.9-2.9c-1.6,0-2.9,1.3-2.9,2.9
				C7.2-22.9,8.5-21.6,10.1-21.6z"/>
			<path class="st1" d="M24.5-21.6c1.6,0,2.9-1.3,2.9-2.9c0-1.6-1.3-2.9-2.9-2.9c-1.6,0-2.9,1.3-2.9,2.9
				C21.6-22.9,22.9-21.6,24.5-21.6z"/>
		</g>
		<g>
			<path class="st1" d="M2.9,0c1.6,0,2.9-1.3,2.9-2.9c0-1.6-1.3-2.9-2.9-2.9C1.3-5.8,0-4.5,0-2.9C0-1.3,1.3,0,2.9,0z"/>
			<path class="st1" d="M2.9-14.4c1.6,0,2.9-1.3,2.9-2.9s-1.3-2.9-2.9-2.9c-1.6,0-2.9,1.3-2.9,2.9S1.3-14.4,2.9-14.4z"/>
		</g>
		<g>
			<path class="st1" d="M31.7-28.8c1.6,0,2.9-1.3,2.9-2.9c0-1.6-1.3-2.9-2.9-2.9c-1.6,0-2.9,1.3-2.9,2.9
				C28.8-30.1,30.1-28.8,31.7-28.8z"/>
			<path class="st1" d="M17.3-28.8c1.6,0,2.9-1.3,2.9-2.9c0-1.6-1.3-2.9-2.9-2.9c-1.6,0-2.9,1.3-2.9,2.9
				C14.4-30.1,15.7-28.8,17.3-28.8z"/>
		</g>
		<g>
			<path class="st1" d="M2.9-28.8c1.6,0,2.9-1.3,2.9-2.9c0-1.6-1.3-2.9-2.9-2.9c-1.6,0-2.9,1.3-2.9,2.9C0-30.1,1.3-28.8,2.9-28.8z"
				/>
		</g>
	</g>
</pattern>
<g>
	<pattern  id="SVGID_1_" xlink:href="#_x34_0_xA0__x25__10_ppp_2" patternTransform="matrix(1 0 0 1 11.8028 -6.7967)">
	</pattern>
	<path class="st2" d="M204.5,70.2l-11.3,7.1c0.7,0.9,1,1.4,1.3,1.8c8.3,10.4,16.7,20.9,25.1,31.3c0.9,0.7,1.8,1.3,2.9,1.7
		c0-1.2-0.1-2.3-0.4-3.4c-4.2-9.4-8.5-18.8-12.7-28.1C207.8,77.3,206.2,74,204.5,70.2z"/>
	<pattern  id="SVGID_2_" xlink:href="#_x34_0_xA0__x25__10_ppp_2" patternTransform="matrix(1 0 0 1 11.8028 -6.7967)">
	</pattern>
	<polygon class="st3" points="230,54.1 244.2,51.3 244.2,39.6 230,36.9 	"/>
	<pattern  id="SVGID_3_" xlink:href="#_x34_0_xA0__x25__10_ppp_2" patternTransform="matrix(1 0 0 1 11.8028 -6.7967)">
	</pattern>
	<path class="st4" d="M155.9,36.6c-9,0.6-17.8,2.4-26.3,5.4c-6.8,2.4-12.7,6.8-17,12.6c-1.3,1.8-1.5,3.2,0.7,4.4
		c1.7,1,3.5,1.9,5.3,2.8c5.9,2.3,12.1,4.2,17.9,6.7c9.3,2.9,16.6,10,19.8,19.3l19.7,1c4.3-12.2,6.3-15.8,13.2-20.6
		c4.3-3,8.9-5.5,13.8-7.4c5.3-2.2,11-3.5,16.7-5.2V35.6c-0.6-0.1-1-0.2-1.5-0.2C197.5,34.3,176.6,34.7,155.9,36.6z"/>
	<pattern  id="SVGID_4_" xlink:href="#_x34_0_xA0__x25__10_ppp_2" patternTransform="matrix(1 0 0 1 11.8028 -6.7967)">
	</pattern>
	<path class="st5" d="M151.7,129.5c9.5-2.2,19.4-2.2,28.9-0.1v-11.2h-28.9V129.5z"/>
	<path class="st6" d="M254.2,39.3c0.1-4.1-2.7-7.7-6.6-8.8c-8.2-2-16.6-3.5-25-4.6c-7.7-0.9-15.4-0.6-23.2-0.8
		c-20.2-0.7-40.3,0.6-60.2,4c-12.9,1.7-24.7,8.2-33.2,18c-6.8,8.4-5.4,16.6,4.4,21.3c5.7,2.8,11.8,4.7,17.8,7
		c5.7,1.7,10.9,4.7,15.2,8.9c1.9,2,3.1,4.5,3.5,7.2c0.3,5.3,0.2,10.7-0.2,16c-0.1,1.2-0.6,2.3-1.4,3.1c-2.2,2-3.4,4.9-3.4,7.9
		c0.1,3.6-0.1,7.3,0.1,10.9c0.1,2.3-0.7,3.2-2.8,4.2c-25.5,11.9-40.2,32.1-41.1,60.2c-1.1,33.6-0.3,67.2-0.2,100.9
		c0,6.6,2.8,12.9,7.7,17.3c3.8,3.4,8.4,5.6,13.4,6.6l94.5,0c0.2-0.2,0.5-0.3,0.8-0.4c12.5-2,21.3-13.2,20.4-25.8
		c0-31.6,0-63.2,0-94.8c0.1-3.9-0.2-7.8-0.9-11.7c-3.5-23.6-19.2-43.6-41.2-52.6c-1.3-0.4-2.1-1.6-2-3c0.1-3.8,0-7.6,0.1-11.5
		c0.2-3.2-1.2-6.3-3.6-8.4c-0.7-0.6-1.1-1.5-1.1-2.4c-0.1-5.5-0.1-11.1,0.1-16.6c0.2-2,0.6-4,1.2-5.9c1.3,1.6,2.2,2.7,3.1,3.8
		c7.6,9.4,15.1,19,22.8,28.4c1.3,1.6,3,2.9,4.9,3.6c5.7,2.1,12-0.8,14.1-6.5c1.1-3,0.9-6.3-0.6-9.1c-4.6-10.1-9.2-20.1-13.8-30.2
		c-1.2-2.7-2.4-5.4-3.7-8.3c1.4-0.4,2.6-0.7,3.8-0.9c8.9-1.7,17.8-3.4,26.7-5.1c0.4,0,0.8-0.1,1.2-0.1c5.6-0.9,9.4-6.1,8.5-11.7
		C254.2,46,254.3,42.7,254.2,39.3z M180.6,129.4c-9.5-2.1-19.4-2.1-28.9,0.1v-11.2h28.9V129.4z M222,108.7c0.3,1.1,0.4,2.3,0.4,3.4
		c-1-0.4-2-1-2.9-1.7c-8.4-10.4-16.7-20.8-25.1-31.3c-0.4-0.4-0.7-0.9-1.3-1.8l11.3-7.1c1.8,3.8,3.3,7.1,4.8,10.4
		C213.5,89.9,217.8,99.3,222,108.7z M219.8,55.5c-5.7,1.7-11.4,3-16.7,5.2c-4.9,2-9.5,4.5-13.8,7.4c-7,4.8-8.9,8.4-13.2,20.6
		l-19.7-1c-3.1-9.2-10.5-16.4-19.8-19.3c-5.8-2.6-12-4.4-17.9-6.7c-1.8-0.8-3.6-1.8-5.3-2.8c-2.3-1.1-2-2.5-0.7-4.4
		c4.3-5.8,10.2-10.2,17-12.6c8.5-3,17.3-4.8,26.3-5.4c20.7-1.9,41.6-2.3,62.4-1.2c0.5,0,0.9,0.1,1.5,0.2V55.5z M244.2,51.3L230,54.1
		V36.9l14.3,2.8V51.3z"/>
</g>
</svg>
